<svg width="11" height="18" viewBox="0 0 11 18" fill="none" xmlns="http://www.w3.org/2000/svg">
<path d="M10.5814 17.7882C10.7358 17.6497 10.8223 17.4638 10.8223 17.2702C10.8223 17.0766 10.7358 16.8908 10.5814 16.7523L1.95349 9L10.5814 1.24928C10.7358 1.1108 10.8223 0.924902 10.8223 0.731325C10.8223 0.537746 10.7358 0.351849 10.5814 0.213369C10.5063 0.145844 10.4166 0.0921727 10.3174 0.0555268C10.2183 0.018879 10.1118 6.21125e-08 10.0042 7.15194e-08C9.89657 8.09264e-08 9.79006 0.018879 9.69093 0.0555268C9.59179 0.0921727 9.50204 0.145844 9.42698 0.213369L0.251998 8.45878C0.0908538 8.60358 0.000665814 8.79779 0.000665832 9C0.000665849 9.20221 0.0908539 9.39642 0.251998 9.54122L9.42698 17.7866C9.50204 17.8542 9.59179 17.9078 9.69093 17.9445C9.79006 17.9811 9.89658 18 10.0042 18C10.1118 18 10.2183 17.9811 10.3174 17.9445C10.4166 17.9078 10.5063 17.8542 10.5814 17.7866L10.5814 17.7882Z" fill="#383737"/>
</svg>
