<svg width="121" height="150" fill="none" xmlns="http://www.w3.org/2000/svg"><path d="M114.356 96.901l-12.808-6.188-2.884-3.368c4.608-5.75 5.016-12.547 5.225-16.558.007-.145.017-.3.024-.455.148-.162.28-.312.353-.4 2.87-3.14 8.206-8.98 8.206-17.772 0-8.72-5.315-14.58-8.204-17.765l-.249-.27c-.034-.037-.068-.075-.107-.114l-.034-.68c-.222-4.194-.632-12.004-6.682-18.057-6.053-6.05-13.849-6.46-18.038-6.682l-.275-.012c-.139-.008-.285-.014-.436-.024-.13-.119-.265-.25-.409-.386C74.89 5.313 69.03 0 60.311 0c-8.719 0-14.578 5.313-17.846 8.282-.088.087-.186.18-.291.273-.15.01-.298.017-.435.024l-.281.012c-4.185.222-11.98.632-18.034 6.682-6.05 6.053-6.46 13.86-6.692 18.254-.007.152-.014.316-.023.484-.04.039-.073.078-.107.113l-.28.305C13.467 37.579 8.15 43.44 8.15 52.16c0 8.792 5.337 14.633 8.141 17.698.123.148.266.307.416.472l.034.682c.2 3.807.607 10.583 5.215 16.333l-2.884 3.368L6.264 96.9c-5.504 2.66-7.82 9.301-5.163 14.804a11.01 11.01 0 006.34 5.654c2.799.976 5.806.799 8.474-.491l13.166-6.368a20.342 20.342 0 006.614-5.094l3.235-3.777 1.559 14.937H26.207c-9.217 0-16.712 7.497-16.712 16.712 0 5.178 2.337 9.972 6.413 13.162a16.61 16.61 0 0014.317 3.063l30.085-7.456 30.082 7.454a16.611 16.611 0 0014.318-3.063c4.079-3.189 6.413-7.986 6.413-13.162 0-9.217-7.498-16.713-16.713-16.713H80.13l1.558-14.937 3.235 3.777a20.332 20.332 0 006.614 5.095l13.166 6.368a11.01 11.01 0 008.475.491 11.008 11.008 0 006.339-5.654c2.657-5.505.341-12.146-5.163-14.802h.003zM21.562 70.545c-.024-.457-.05-.997-.094-1.442a2.443 2.443 0 00-.566-1.338l-.972-1.1c-2.596-2.841-6.938-7.595-6.938-14.507 0-6.854 4.163-11.44 6.941-14.508l.228-.247c.244-.261.513-.556.745-.827.324-.38.523-.851.568-1.348.044-.474.07-1.006.104-1.647.213-4.043.532-10.151 5.27-14.89 4.74-4.738 10.836-5.06 14.865-5.27l.263-.014c.45-.022.97-.049 1.422-.092.494-.048.964-.25 1.343-.573.382-.33.82-.714 1.096-.99C48.87 9 53.456 4.84 60.31 4.84c6.854 0 11.441 4.161 14.426 6.864.33.329.765.713 1.15 1.042a2.4 2.4 0 001.342.573c.453.047.972.07 1.422.092l.26.014c4.032.21 10.13.533 14.868 5.27 4.738 4.74 5.057 10.848 5.28 15.077.024.455.05.985.094 1.462.048.495.246.965.568 1.347.232.27.501.564.745.828l.252.273c2.755 3.038 6.917 7.625 6.917 14.48 0 6.911-4.343 11.665-7.005 14.578l-.909 1.028c-.322.375-.52.845-.566 1.338-.046.445-.07.982-.107 1.655-.181 3.461-.462 8.436-3.59 12.84l-5.404-6.312c-.107-.123-.233-.228-.342-.35.804-2.044.927-4.361 1.043-6.623.101-1.998.198-3.885.75-5.219.514-1.233 1.736-2.57 3.03-3.988 2.25-2.467 4.8-5.261 4.8-8.943 0-3.658-2.54-6.443-4.78-8.903-1.301-1.428-2.533-2.775-3.05-4.026-.555-1.335-.654-3.22-.756-5.215-.167-3.259-.359-6.953-2.84-9.45-2.48-2.48-6.177-2.67-9.436-2.842-2-.104-3.89-.201-5.232-.755-1.251-.518-2.6-1.75-4.026-3.051-2.461-2.248-5.246-4.786-8.904-4.786-3.658 0-6.442 2.54-8.903 4.78-1.427 1.302-2.774 2.533-4.02 3.048-1.349.556-3.238.656-5.239.757-3.262.17-6.955.36-9.443 2.85-2.472 2.49-2.665 6.187-2.833 9.443-.103 1.996-.2 3.88-.755 5.216-.52 1.25-1.751 2.598-3.053 4.025-2.24 2.46-4.78 5.245-4.78 8.903 0 3.682 2.552 6.48 4.8 8.944 1.293 1.418 2.516 2.755 3.026 3.978.554 1.344.653 3.232.755 5.23.116 2.265.24 4.585 1.045 6.63-.107.119-.228.218-.331.34l-5.427 6.336c-3.116-4.362-3.396-9.404-3.59-13.072zm60.632-20.419c-.936-10.332-9.09-18.657-19.391-19.797-6.26-.687-12.503 1.301-17.148 5.463a22.001 22.001 0 00-7.319 16.377c0 6.35 2.74 12.3 7.372 16.422l-4.897 1.707a23.597 23.597 0 00-5.843 3.022c-.148-1.014-.209-2.143-.266-3.256-.119-2.317-.242-4.713-1.116-6.837-.842-2.007-2.407-3.723-3.922-5.385-1.818-1.992-3.537-3.875-3.537-5.683 0-1.783 1.708-3.658 3.518-5.642 1.524-1.672 3.097-3.4 3.943-5.43.874-2.107 1-4.505 1.118-6.823.138-2.627.264-5.104 1.43-6.28 1.163-1.163 3.76-1.3 6.269-1.43 2.32-.121 4.717-.246 6.837-1.12 2.03-.845 3.757-2.42 5.43-3.943 1.981-1.807 3.856-3.516 5.64-3.516 1.782 0 3.657 1.708 5.641 3.518 1.672 1.524 3.4 3.099 5.434 3.945 2.115.87 4.512.997 6.832 1.118 2.51.13 5.102.264 6.261 1.423 1.171 1.18 1.3 3.66 1.438 6.288.119 2.317.244 4.715 1.12 6.822.845 2.03 2.417 3.758 3.941 5.43 1.81 1.984 3.518 3.859 3.518 5.642 0 1.807-1.717 3.69-3.537 5.683-1.514 1.663-3.08 3.378-3.927 5.395-.869 2.113-.992 4.507-1.11 6.825-.059 1.113-.12 2.24-.266 3.255a23.79 23.79 0 00-5.836-3.017l-4.909-1.713a22.057 22.057 0 007.282-18.462zm32.966 59.477a6.214 6.214 0 01-3.576 3.186 6.196 6.196 0 01-4.776-.279l-13.165-6.368a15.495 15.495 0 01-5.047-3.885L81.7 94.209a2.424 2.424 0 00-2.56-.738 2.42 2.42 0 00-1.683 2.06l-2.42 23.205c-.072.679.15 1.359.607 1.87a2.42 2.42 0 001.798.798h16.966c6.546 0 11.874 5.327 11.874 11.874 0 3.678-1.662 7.087-4.558 9.354a11.803 11.803 0 01-10.173 2.173l-30.66-7.598a2.43 2.43 0 00-1.162 0l-30.666 7.599a11.821 11.821 0 01-10.173-2.173 11.81 11.81 0 01-4.558-9.353c0-6.547 5.327-11.874 11.874-11.874h16.967a2.42 2.42 0 001.797-.799c.457-.51.68-1.19.607-1.87l-2.42-23.204a2.424 2.424 0 00-1.683-2.06 2.425 2.425 0 00-2.56.737l-6.895 8.048a15.405 15.405 0 01-5.047 3.885l-13.166 6.368a6.196 6.196 0 01-4.776.279 6.237 6.237 0 01-3.576-3.186 6.26 6.26 0 012.908-8.345l13.263-6.407c.302-.144.568-.35.786-.604l11.84-13.82a18.906 18.906 0 018.144-5.56l9.324-3.254a2.416 2.416 0 001.614-2.083 2.411 2.411 0 00-1.248-2.322 17.155 17.155 0 01-8.92-15.041 17.16 17.16 0 015.706-12.77c3.68-3.293 8.434-4.8 13.39-4.257 7.893.87 14.384 7.502 15.1 15.42.619 6.831-2.852 13.365-8.845 16.648a2.412 2.412 0 00-1.248 2.322 2.416 2.416 0 001.614 2.083l9.333 3.256a18.925 18.925 0 018.146 5.565L98.19 94.246c.218.252.484.46.786.605l13.263 6.407a6.253 6.253 0 012.921 8.345h.001z" fill="#383737"/></svg>