<svg width="147" height="150" fill="none" xmlns="http://www.w3.org/2000/svg"><path d="M138.716 86.243l-15.725-7.593-14.094-16.482a28.795 28.795 0 00-12.24-8.351l-6.867-2.39a26.389 26.389 0 009.401-22.663C98.215 18.022 90.526 8.893 80.233 5.95 79.575 2.564 76.597 0 73.024 0c-3.573 0-6.553 2.567-7.209 5.954-11.148 3.169-19.063 13.497-19.063 25.254a26.285 26.285 0 009.51 20.22l-6.847 2.39a28.665 28.665 0 00-12.24 8.356L23.06 78.652 7.33 86.25c-6.444 3.118-9.152 10.894-6.04 17.325 2.173 4.547 6.662 7.376 11.716 7.376 1.988 0 3.894-.443 5.648-1.307l16.045-7.765a24.282 24.282 0 007.894-6.095l4.661-5.44 1.703 19.929-17.52-.001c-10.952 0-19.862 8.91-19.862 19.861 0 10.952 8.898 19.86 19.837 19.86 1.59 0 3.196-.193 4.792-.577l30.56-7.582c1.292 2.117 3.602 3.549 6.259 3.549 2.657 0 4.967-1.43 6.259-3.549l30.565 7.582a19.93 19.93 0 004.795.585c4.384 0 8.663-1.459 12.215-4.238 4.841-3.791 7.616-9.488 7.616-15.628 0-5.281-2.063-10.267-5.82-14.055-3.771-3.742-8.758-5.806-14.041-5.806H97.095l1.704-19.93 4.659 5.436a24.225 24.225 0 007.901 6.099l16.042 7.769a12.944 12.944 0 009.936.568 12.9 12.9 0 007.412-6.614 12.745 12.745 0 001.313-5.664c0-4.96-2.883-9.55-7.345-11.693h-.001zM73.023 4.838a2.514 2.514 0 012.511 2.511 2.511 2.511 0 01-5.022-.002 2.511 2.511 0 012.511-2.509zm0 135.701a2.514 2.514 0 01-2.51-2.511 2.513 2.513 0 012.51-2.511 2.514 2.514 0 012.511 2.511 2.513 2.513 0 01-2.51 2.511zm67.374-39.064a8.1 8.1 0 01-4.657 4.163 8.104 8.104 0 01-6.237-.355l-16.035-7.763a19.435 19.435 0 01-6.333-4.89l-8.417-9.821a2.42 2.42 0 00-4.245 1.37l-2.42 28.306c-.058.675.17 1.342.629 1.841a2.407 2.407 0 001.781.784h20.152c3.996 0 7.773 1.563 10.621 4.388 2.84 2.863 4.403 6.642 4.403 10.635 0 4.643-2.099 8.951-5.763 11.821-3.668 2.872-8.36 3.881-12.863 2.768l-30.728-7.625c-.467-3.605-3.525-6.408-7.256-6.408-3.73 0-6.787 2.803-7.255 6.408l-30.712 7.621c-1.215.287-2.44.435-3.648.435-8.272 0-15-6.74-15-15.023 0-8.284 6.741-15.023 15.024-15.023H51.59a2.418 2.418 0 002.41-2.625l-2.42-28.307a2.419 2.419 0 00-4.245-1.37l-8.42 9.828a19.492 19.492 0 01-6.326 4.885l-16.056 7.772a7.905 7.905 0 01-3.529.815c-3.172 0-5.99-1.771-7.355-4.636-1.955-4.038-.254-8.917 3.784-10.872l16.181-7.814c.303-.145.568-.351.787-.605l14.44-16.857a23.809 23.809 0 0110.163-6.938l11.368-3.968a2.416 2.416 0 001.614-2.083 2.412 2.412 0 00-1.246-2.32c-6.883-3.78-11.156-10.984-11.156-18.806 0-9.388 6.183-17.662 14.972-20.432 1.237 2.322 3.653 3.923 6.462 3.923 2.806 0 5.22-1.6 6.46-3.917 8.104 2.57 14.109 9.868 14.888 18.42.766 8.535-3.577 16.704-11.066 20.813a2.417 2.417 0 00.365 4.405l11.388 3.965a23.886 23.886 0 0110.165 6.936l14.418 16.862c.218.254.484.46.786.605l16.185 7.816a8.17 8.17 0 014.606 7.328 7.803 7.803 0 01-.815 3.544l-.001.001zM73.024 108.9c-4.053 0-7.35 3.297-7.35 7.349s3.297 7.35 7.35 7.35c4.052 0 7.349-3.298 7.349-7.35 0-4.055-3.297-7.349-7.35-7.349zm0 9.858a2.514 2.514 0 01-2.511-2.511 2.513 2.513 0 012.51-2.511 2.515 2.515 0 012.511 2.511 2.516 2.516 0 01-2.51 2.511zm0-31.638c-4.053 0-7.35 3.297-7.35 7.35 0 4.052 3.297 7.349 7.35 7.349 4.052 0 7.349-3.297 7.349-7.35 0-4.052-3.297-7.349-7.35-7.349zm0 9.858a2.515 2.515 0 01-2.511-2.51 2.515 2.515 0 012.51-2.512 2.514 2.514 0 012.511 2.511 2.514 2.514 0 01-2.51 2.511zm0-31.638c-4.053 0-7.35 3.298-7.35 7.35s3.297 7.35 7.35 7.35c4.052 0 7.349-3.298 7.349-7.35s-3.297-7.35-7.35-7.35zm0 9.859a2.515 2.515 0 01-2.511-2.511 2.515 2.515 0 012.51-2.511 2.514 2.514 0 012.511 2.51 2.513 2.513 0 01-2.51 2.512zm0-31.638c-4.053 0-7.35 3.297-7.35 7.35 0 4.051 3.297 7.349 7.35 7.349 4.052 0 7.349-3.298 7.349-7.35 0-4.05-3.297-7.35-7.35-7.35zm0 9.858a2.514 2.514 0 01-2.511-2.511 2.513 2.513 0 012.51-2.511 2.514 2.514 0 012.511 2.51 2.513 2.513 0 01-2.51 2.512zm0-31.638c-4.053 0-7.35 3.297-7.35 7.35 0 4.052 3.297 7.349 7.35 7.349 4.052 0 7.349-3.297 7.349-7.35 0-4.052-3.297-7.35-7.35-7.35zm0 9.858a2.514 2.514 0 01-2.511-2.51 2.513 2.513 0 012.51-2.512 2.514 2.514 0 012.511 2.511 2.514 2.514 0 01-2.51 2.511z" fill="#383737"/></svg>