<svg width="158" height="150" fill="none" xmlns="http://www.w3.org/2000/svg"><path d="M157.278 52.032L116.852.967a2.539 2.539 0 00-3.062-.73L54.654 27.55a2.548 2.548 0 00-1.472 2.115l-3.897 50.55-32.532-12.66a2.541 2.541 0 00-3.306 1.49L.158 104.92a2.545 2.545 0 00.227 2.23l22.941 36.768a2.556 2.556 0 001.675 1.153l25.203 4.883a2.538 2.538 0 002.673-1.205l12.114-20.47 39.378 9.387c.013.003.021.013.033.015.199.049.397.068.593.068.36 0 .696-.099 1.014-.24.041-.018.089-.01.13-.03l20.874-10.386a2.547 2.547 0 001.22-1.308l29.402-71.204a2.546 2.546 0 00-.357-2.549v-.001zm-54.17 80.103l-36.282-8.645 15.638-65.536 36.279 8.658-15.635 65.523zM20.701 74.559l26.982 10.499-13.003 20.595L20.7 74.559zm37.13-38.962L77.77 55.67l-14.274 59.822-9.378-31.752 3.711-48.142zm22.338 15.264L60.086 30.648l47.772-22.066-27.69 42.279zm4.523 2.388l28.419-43.39 5.767 51.547-34.186-8.157zm39.296 8.066l-5.615-50.227 32.651 41.252-27.036 8.975zM16.055 76.646l13.978 31.092-24.034-3.943 10.056-27.149zm-8.379 32.585l24.864 4.078 13.808 30.716-19.294-3.74-19.378-31.054zm43.315 32.707l-13.808-30.717 13.449-21.305 10.371 35.104-10.012 16.918zm72.899-18.976l-15.159 7.543 15.225-63.81 26.849-8.913-26.915 65.18z" fill="#383737"/></svg>