<svg width="137" height="150" fill="none" xmlns="http://www.w3.org/2000/svg"><path d="M116.272 109.737l10.959-18.012c8.524-14.009 10.981-31.128 6.743-46.971C126.927 18.402 102.951 0 75.672 0h-3.9C39.038 0 12.406 26.632 12.406 59.367v7.974L1.286 84.426a7.94 7.94 0 00-.977 6.528 7.94 7.94 0 004.287 5.016l8.064 3.752 3.172 18.061a18.784 18.784 0 0018.527 15.556h14.584a4.287 4.287 0 014.186 3.406l2.356 11.33a2.423 2.423 0 002.37 1.925h56.184c.728 0 1.418-.329 1.875-.893.46-.564.642-1.307.494-2.018l-3.596-17.308a27.62 27.62 0 013.457-20.044h.003zm-8.197 21.027l2.991 14.397h-51.24l-1.955-9.402c-.874-4.207-4.628-7.262-8.925-7.262H34.362a13.953 13.953 0 01-13.761-11.553l-3.39-19.303a2.424 2.424 0 00-1.361-1.774l-9.208-4.285a3.05 3.05 0 01-1.68-1.964 3.068 3.068 0 01.383-2.552l11.511-17.689c.254-.394.392-.854.392-1.32v-8.693c0-30.066 24.458-54.525 54.525-54.525h3.9c25.091 0 47.143 16.928 53.63 41.167 3.898 14.573 1.637 30.32-6.203 43.206l-10.96 18.012a32.418 32.418 0 00-4.065 23.54zM93.211 26.251H83.125V16.164a2.417 2.417 0 00-2.42-2.419H65.29a2.417 2.417 0 00-2.42 2.42V26.25H52.784a2.417 2.417 0 00-2.42 2.42v15.415a2.417 2.417 0 002.42 2.42H62.87v10.086a2.417 2.417 0 002.42 2.42h15.415a2.417 2.417 0 002.42-2.42V46.506H93.21a2.417 2.417 0 002.42-2.42V28.67a2.418 2.418 0 00-2.42-2.419zm-2.419 15.416H80.705a2.417 2.417 0 00-2.419 2.42v10.086H67.71V44.086a2.417 2.417 0 00-2.42-2.42H55.204V31.09H65.29a2.417 2.417 0 002.419-2.42V18.584h10.577V28.67a2.417 2.417 0 002.42 2.42h10.086v10.577zM1.077 17.502a2.417 2.417 0 012.42-2.419H7.63V10.95a2.417 2.417 0 012.42-2.42 2.417 2.417 0 012.419 2.42v4.134h4.136a2.417 2.417 0 012.42 2.42 2.417 2.417 0 01-2.42 2.419H12.47v4.136a2.417 2.417 0 01-2.42 2.42 2.417 2.417 0 01-2.419-2.42v-4.136H3.497a2.417 2.417 0 01-2.42-2.42zM136.903 123.58a2.417 2.417 0 01-2.419 2.42h-4.137v4.134a2.416 2.416 0 01-2.419 2.419 2.416 2.416 0 01-2.419-2.419V126h-4.137a2.417 2.417 0 01-2.419-2.42 2.416 2.416 0 012.419-2.419h4.137v-4.137a2.416 2.416 0 012.419-2.419 2.416 2.416 0 012.419 2.419v4.137h4.137a2.418 2.418 0 012.419 2.419zM46.871 69.865c-1.815 2.84-5.725 4.602-10.21 4.602-4.484 0-8.396-1.764-10.21-4.6a2.416 2.416 0 01.733-3.34 2.414 2.414 0 013.34.733c.734 1.142 2.965 2.369 6.136 2.369 3.172 0 5.403-1.23 6.13-2.369a2.415 2.415 0 013.342-.737 2.422 2.422 0 01.738 3.342z" fill="#383737"/></svg>