<svg width="1180" height="1275" viewBox="0 0 1180 1275" fill="none" xmlns="http://www.w3.org/2000/svg">
<path d="M1023.81 252.482C988.958 217.014 951.345 182.544 910.53 154.783C906.269 152.014 892.992 161.77 894.349 167.443C900.535 203.448 903.138 239.529 886.999 275.008C868.921 312.428 852.645 349.806 834.559 387.218C824.965 407.363 735.645 603.928 720.917 597.554C706.196 591.173 726.85 531.85 730.338 521.319C749.636 456.309 776.097 391.166 803.236 328.864C827.173 273.273 861.046 216.551 851.388 155.886C844.671 115.131 818.487 83.3001 787.157 60.1153C733.707 22.1407 663.499 4.4449 596.669 0.939137C593.081 1.00649 579.132 7.92546 581.459 12.6284C610.397 78.6373 626.349 150.588 618.724 226.789C614.542 269.653 602.667 307.902 588.708 349.99C583.958 365.29 566.398 442.623 544.22 440.191C528.243 438.586 534.738 400.439 535.62 389.02C539.21 353.776 545.572 317.535 551.927 281.287C562.411 214.538 582.929 121.939 553.551 61.6503C541.939 38.1029 519.515 27.1132 493.463 28.554C474.576 29.8605 457.046 36.8394 439.509 43.8271C398.773 61.7001 358.867 80.5156 319.102 97.4199C260.011 121.351 199.278 143.398 137.481 155.961C118.313 161.094 100.097 165.238 81.3561 164.636C77.7678 164.704 64.7891 170.653 66.1459 176.326C75.3726 242.703 41.8339 318.433 22.5362 383.443C6.88011 436.021 -18.9623 516.366 25.5304 554.509C68.2287 592.686 137.336 578.082 191.918 578.002C206.246 577.733 243.056 576.098 237.576 600.917C233.206 622.868 187.735 620.866 173.407 621.133C125.027 622.041 70.0643 615.47 25.1786 605.854C20.7719 604.991 9.58176 610.9 8.17987 617.583C1.91919 664.288 -0.906117 712.826 8.13169 758.29C9.86164 770.62 12.8088 790.523 22.6856 801.748C42.4332 824.191 86.5013 832.879 114.734 838.047C148.197 845.028 184.702 847.193 219.725 845.583C250.189 845.011 281.762 841.57 312.373 839.091C326.853 836.922 356.924 829.701 368.889 837.078C384.282 846.296 346.696 869.822 340.065 874.692C302.042 903.925 258.548 922.808 214.135 930.299C168.759 938.752 118.058 934.951 77.3306 917.654C73.8941 915.821 58.006 924.667 61.1502 930.313C151.65 1103.54 299.68 1261.43 501.802 1273.8C565.05 1277.37 633.48 1259.92 682.22 1207.67C722.235 1164.14 741.919 1105.78 751.527 1050.46C755.073 1027.57 757.788 1003.76 757.752 980.944L869.512 1110.05L891.799 1087.76L775.474 959.701C817.837 978.871 861.322 995.17 910.281 986.642C1009.18 968.623 1078.95 863.689 1124.93 777.259C1178.14 678.34 1194.98 575.344 1162.48 474.233C1136.94 387.25 1084.47 313.134 1023.81 252.47L1023.81 252.482ZM1120.27 417.993C1159.9 496.156 1177.83 588.987 1152.77 682.632C1135.26 747.607 1098.19 811.048 1059.09 865.971C1029.01 908.369 991.895 948.989 944.965 966.039C884.225 988.096 831.554 963.414 779.695 939.669C781.489 939.635 781.489 939.635 783.283 939.601C787.69 940.464 792.241 939.433 796.793 938.403C801.345 937.372 806.722 937.264 811.274 936.234C821.202 935.095 832.101 932.987 843.14 928.978C854.038 926.87 865.077 922.862 876.266 916.953C887.305 912.945 898.502 907.03 908.716 902.084C952.502 879.4 990.671 848.261 1018.48 823.973C1045.47 798.749 1061.25 779.44 1061.25 779.44C1061.25 779.44 1044.63 797.82 1016.01 821.164C987.383 844.521 947.565 873.788 904.889 893.603C894.675 898.547 883.624 902.556 872.586 906.564C861.548 910.572 851.473 913.617 840.569 915.719C829.67 917.827 819.741 918.965 810.643 921.033C806.092 922.064 800.715 922.171 797.133 922.232C792.581 923.263 788.175 922.4 784.587 922.468C775.628 922.636 768.61 920.864 762.409 920.034C759.791 919.132 758.002 919.172 756.215 919.199C767.697 909.477 782.084 896.85 799.375 881.308C818.605 863.838 842.534 843.417 866.609 821.104C879.061 810.412 892.478 798.756 904.106 787.127C917.529 775.465 930.121 762.873 943.543 751.212L981.331 713.423C987.146 707.609 993.93 700.824 998.914 694.08C1003.9 687.33 1009.72 681.515 1015.67 673.801C1021.49 667.987 1026.48 661.236 1031.47 654.485C1036.46 647.734 1041.45 640.983 1045.47 635.209C1054.48 622.678 1061.71 610.186 1069.75 598.626C1072.94 591.909 1076 587.105 1079.05 582.287C1081.28 576.54 1084.34 571.737 1086.57 565.983C1090.89 556.395 1093.4 546.835 1095.78 539.187C1098.16 531.54 1098.59 525.827 1098.89 522.02L1099.33 516.313C1099.33 516.313 1099.18 518.22 1098.89 522.02C1098.6 525.833 1097.19 532.51 1093.99 539.227C1091.62 546.875 1088.27 555.498 1083.96 565.087C1080.91 569.897 1078.67 575.637 1075.62 580.455C1072.57 585.265 1068.55 591.046 1066.31 596.793C1059.24 607.384 1050.22 619.908 1040.39 631.503C1036.37 637.284 1030.55 643.098 1025.56 649.849C1019.75 655.663 1014.76 662.414 1008.94 668.229C1003.13 674.043 997.316 679.858 992.325 686.609L973.919 705.015C961.32 717.614 948.874 728.3 935.452 739.962C922.029 751.624 907.795 762.349 895.342 773.041C881.096 783.767 868.655 794.459 856.202 805.151C830.486 825.598 805.727 845.076 785.678 861.616C765.624 878.149 747.655 890.849 736.172 900.571C734.231 902.512 731.474 903.509 730.504 904.479L692.504 863.365C694.584 859.525 698.464 855.644 701.515 850.834C706.505 844.083 712.465 836.362 719.54 825.778C726.464 817.094 733.694 804.595 741.733 793.034C749.774 781.473 757.966 768.012 767.128 753.58C776.29 739.148 784.616 723.781 792.954 708.413C802.262 692.075 809.77 675.776 819.072 659.432C828.38 643.094 836.034 624.89 844.517 607.616C853.002 590.341 858.862 572.169 867.345 554.895C873.211 536.718 880.718 520.42 885.621 503.219C890.517 486.011 896.236 469.741 900.17 453.51C904.919 438.209 907.875 422.942 911.668 408.611C914.477 395.251 917.293 381.883 918.168 370.457C919.868 359.966 920.744 348.539 921.327 340.926C922.641 323.793 922.407 315.236 922.407 315.236C922.407 315.236 921.677 324.756 919.545 340.959C917.992 349.543 917.262 359.063 914.592 370.524C912.892 381.014 910.083 394.375 906.296 408.712C902.516 423.043 898.729 437.381 893.98 452.682C889.231 467.983 883.51 484.254 878.608 501.455C872.888 517.726 865.235 535.93 858.545 553.172C850.061 570.446 843.377 587.682 834.893 604.955C826.41 622.229 817.931 639.498 808.624 655.836C799.316 672.174 790.014 688.505 781.682 703.88C771.549 719.282 762.399 733.714 754.208 747.174C744.227 760.675 736.035 774.137 727.995 785.698C719.955 797.259 712.879 807.844 704.978 817.505C698.054 826.19 691.124 834.881 686.128 841.625C683.078 846.435 680.168 849.345 678.234 851.279L571.78 734.439C573.86 730.599 577.88 724.818 581.089 718.101C583.168 714.261 585.255 710.414 588.31 705.61C591.36 700.799 593.447 696.952 595.679 691.212C600.96 680.661 607.213 669.127 613.61 655.7C620.007 642.273 625.581 627.909 632.125 612.573C638.669 597.239 643.565 580.032 649.285 563.76C655.005 547.488 660.053 528.381 664.941 511.181C669.019 493.044 674.885 474.866 678.949 456.73C683.026 438.592 687.098 420.449 690.351 401.374C694.429 383.236 696.707 365.126 699.813 347.958C702.921 330.791 705.052 314.588 707.197 298.384C709.334 282.187 711.327 267.883 713.313 253.586C719.334 198.331 720.466 160.277 720.466 160.277C720.466 160.277 718.516 197.387 709.731 253.646C707.746 267.943 705.748 282.241 702.792 297.508C700.654 313.705 696.729 329.943 693.628 347.116C690.52 364.284 686.448 382.428 682.37 400.565C678.292 418.703 673.397 435.91 668.362 455.017C662.496 473.195 658.418 491.333 652.558 509.503C646.692 527.68 640.971 543.952 634.282 561.179C627.592 578.42 622.843 593.721 615.474 608.119C608.93 623.454 602.532 636.881 597.11 649.346C589.888 661.837 584.605 672.402 579.324 682.952C576.274 687.762 573.224 692.573 571.132 696.413C569.052 700.254 565.996 705.071 563.092 707.975C560.042 712.785 557.955 716.632 555.052 719.536L406.626 554.995C407.743 552.118 409.004 547.348 412.2 540.631C414.426 534.884 416.658 529.144 419.036 521.483C422.233 514.766 424.757 505.212 428.104 496.595C430.628 487.041 434.941 477.447 437.603 465.995C440.273 454.534 443.761 444.017 446.431 432.556C449.101 421.096 450.94 408.705 453.756 395.339C455.602 382.942 456.617 369.615 458.469 357.225C458.521 344.861 460.367 332.464 460.418 320.115C460.47 307.752 460.528 295.395 459.609 284.002C458.691 272.609 457.778 261.222 455.89 250.799C454.002 240.376 452.119 229.959 450.092 221.437C448.057 212.921 446.029 204.398 443.848 197.788C441.674 191.172 439.493 184.562 438.143 178.882C434.466 168.5 432.14 163.783 432.14 163.783C432.14 163.783 434.46 168.493 438.143 178.882C439.493 184.562 440.85 190.235 443.03 196.858C445.204 203.474 446.268 212.961 448.303 221.477C449.367 230.964 450.432 240.45 452.308 250.873C453.226 262.266 453.321 272.723 454.232 284.109C455.151 295.502 453.305 307.899 453.246 320.256C453.194 332.619 451.348 345.016 449.503 357.399C447.657 369.796 445.818 382.186 443.148 393.647C440.478 405.107 436.844 417.531 434.175 428.991C430.681 439.515 427.047 451.939 424.529 461.499C421.035 472.023 416.729 481.61 413.382 490.227C410.034 498.844 406.692 507.468 403.49 514.178C400.294 520.896 397.092 527.606 395.83 532.39C394.713 535.267 393.75 536.23 392.634 539.107L290.564 423.104L289.886 420.261L288.092 420.295L116.643 229.574L281.611 423.264C279.816 423.297 277.883 425.231 276.089 425.265C273.324 426.269 269.748 426.336 265.19 427.373C261.602 427.44 257.055 428.478 251.68 428.572C247.128 429.603 242.721 428.74 237.351 428.841C231.981 428.942 227.569 428.073 222.199 428.173C216.828 428.274 211.592 426.468 206.222 426.569C195.616 424.864 185.985 422.196 175.518 418.591C165.882 415.916 157.215 412.284 149.373 409.576C134.652 403.195 125.168 398.621 125.168 398.621C125.168 398.621 134.513 405.096 148.264 412.447C155.143 416.12 163.658 421.665 173.294 424.34C182.778 428.916 193.246 432.52 203.7 436.125C208.931 437.924 214.155 439.73 219.537 439.629C224.768 441.428 230.144 441.334 235.375 443.134C240.745 443.033 245.981 444.838 251.351 444.738C256.721 444.637 261.134 445.506 265.68 444.469C270.231 443.438 273.814 443.364 277.402 443.297C280.991 443.229 283.743 442.226 286.507 441.222C291.059 440.191 294.641 440.118 294.641 440.118L293.964 437.274L475.399 649.68C474.429 650.651 471.671 651.648 469.731 653.588C465.033 656.525 461.159 660.399 454.666 663.384C448.174 666.355 441.541 671.239 434.079 675.18C426.617 679.122 417.366 683.103 408.123 687.077C399.69 691.988 388.798 694.09 379.547 698.072C370.296 702.053 358.434 705.125 348.354 708.163C338.279 711.208 326.417 714.28 315.519 716.388C304.62 718.495 293.728 720.598 282.004 721.77C271.106 723.878 259.389 725.044 249.462 726.181C239.533 727.319 228.78 727.521 218.851 728.66C208.922 729.799 199.964 729.966 191.975 729.164C157.936 729.803 135.752 727.364 135.752 727.364C135.752 727.364 156.959 730.767 190.859 732.027C199.818 731.859 207.806 732.661 218.559 732.459C228.341 733.228 238.27 732.09 249.023 731.888C259.775 731.686 270.528 731.484 281.42 729.383C293.143 728.211 304.035 726.109 315.758 724.937C326.657 722.829 338.373 721.663 350.241 718.585C361.14 716.477 373.003 713.405 383.077 710.361C393.152 707.316 404.044 705.214 414.27 700.269C423.521 696.288 433.595 693.256 441.05 689.309C448.513 685.368 455.969 681.42 463.432 677.478C469.924 674.507 475.587 670.593 480.285 667.656C484.013 665.688 486.923 662.778 489.681 661.781L607.582 804.096L602.738 808.94C598.864 812.814 593.196 816.721 586.558 821.599C579.92 826.477 572.311 832.325 563.892 837.235C555.459 842.147 546.069 848.028 536.666 853.91C526.452 858.855 516.079 865.707 505.864 870.652C494.68 876.567 483.482 882.483 471.475 887.461C459.468 892.438 448.269 898.355 435.438 902.396C411.414 912.36 386.568 921.373 363.515 930.366C339.637 938.423 318.518 945.47 300.17 951.519C262.636 962.682 237.111 968.866 237.111 968.866C237.111 968.866 262.491 964.588 300.849 954.362C320.029 949.242 341.972 943.132 365.703 936.98C388.61 929.893 414.274 921.81 439.128 912.789C451.961 908.747 463.977 903.761 475.989 898.79C487.998 893.812 500.014 888.826 512.027 883.855C524.035 878.877 534.262 873.931 545.446 868.016C555.66 863.071 565.063 857.19 573.496 852.278C581.929 847.366 590.348 842.455 596.986 837.578C604.448 833.637 609.292 828.793 614.955 824.879C617.858 821.975 620.623 820.971 622.563 819.031L689.895 897.626C679.529 904.471 668.053 914.199 655.453 926.799L631.232 951.02C622.514 959.738 614.612 969.4 606.72 979.053C598.826 988.707 589.962 999.332 581.092 1009.95C572.228 1020.57 563.365 1031.2 553.675 1040.89L524.61 1069.95C514.098 1078.7 505.38 1087.42 494.05 1095.24C484.508 1103.03 474.14 1109.88 463.775 1116.73C459.077 1119.67 454.379 1122.6 449.68 1125.55C444.982 1128.49 440.284 1131.43 436.555 1133.41C428.123 1138.32 419.842 1141.33 412.387 1145.27C404.106 1148.28 398.584 1150.28 393.062 1152.28C382.024 1156.29 375.823 1155.46 375.823 1155.46C375.823 1155.46 382.163 1154.39 393.062 1152.28C398.584 1150.28 404.925 1149.21 413.205 1146.2C420.516 1144.16 429.772 1140.18 438.192 1135.27C442.89 1132.33 447.443 1131.29 452.141 1128.35C456.839 1125.41 461.537 1122.48 467.06 1120.46C476.456 1114.59 486.823 1107.73 498.158 1099.91C508.524 1093.07 519.031 1084.31 529.543 1075.56C540.055 1066.81 550.566 1058.06 560.256 1048.37L589.321 1019.3C599.009 1009.61 607.872 998.99 616.591 990.271L642.751 964.111C651.469 955.393 659.224 947.639 666.825 941.798C673.609 935.013 681.211 929.172 687.849 924.295C694.487 919.418 699.185 916.48 702.914 914.499L714.433 927.591L714.141 931.404C714.965 932.341 713.703 937.111 718.781 940.824C706.552 1030.42 647.722 1120.89 592.293 1190.39C578.439 1207.77 597.618 1202.65 606.482 1192.02C659.971 1124.47 716.707 1037.84 737.605 951.894L745.01 960.309C748.567 1030.6 737.061 1110.66 700.963 1173.15C660.699 1243.3 590.031 1266.5 519.618 1263.07C420.97 1254.43 332.794 1214.26 262.066 1156.65C193.128 1099 134.609 1022.14 90.7026 941.194C120.583 948.236 152.683 949.537 183.292 947.06C250.846 941.04 336.724 906.156 385.072 847.258C414.72 810.58 339.414 824.343 324.107 825.588C248.414 832.707 170.099 838.937 98.5423 815.56C71.427 807.515 41.6914 798.566 31.3413 770.234C14.3157 723.967 15.7831 669.756 22.3361 619.238C62.9616 626.084 103.74 631.018 143.975 631.214C169.057 630.744 257.538 631.941 254.163 582.56C253.005 562.616 228.894 562.117 213.734 561.456C181.628 560.161 148.939 566.48 117.797 564.209C83.8962 562.949 43.417 554.194 26.3382 520.289C12.4048 492.032 17.9349 454.847 25.793 422.378C36.4675 376.544 52.5097 330.607 65.7951 285.683C76.5633 250.304 87.6153 211.12 84.1896 174.104C141.53 173.028 205.173 148.067 257.626 129.016C298.063 114.95 336.866 99.0091 375.801 81.1641C407.279 67.2659 439.204 47.6532 471.894 41.3352C504.584 35.0165 528.504 49.7807 540.358 81.8764C552.889 116.817 549.678 158.713 545.936 195.856C542.579 239.657 534.816 282.58 527.877 326.442C525.447 346.452 494.752 466.812 541.683 449.773C568.318 440.719 583.201 410.016 592.268 385.128C607.342 340.162 624.209 295.163 632.27 248.433C646.681 165.448 633.924 86.7773 603.635 15.1042C660.391 21.641 719.029 38.61 765.893 69.0975C804.235 94.0477 833.429 133.43 834.033 183.807C834.987 218.013 821.755 250.588 807.702 282.22C789.338 323.447 770.968 364.667 754.387 405.86C747.843 421.194 669.713 611.85 711.216 607.269C732.868 604.959 750.653 571.354 760.919 554.045C788.54 508.844 811.075 459.936 833.46 412.931C856.819 364.961 878.386 317.024 899.952 269.073C906.496 253.738 913.863 239.341 915.995 223.137C917.162 207.91 916.536 192.704 914.946 178.474C998.622 242.509 1072.83 324.778 1120.25 418.012L1120.27 417.993Z" fill="black" fill-opacity="0.03"/>
</svg>
