<svg width="1275" height="1179" viewBox="0 0 1275 1179" fill="none" xmlns="http://www.w3.org/2000/svg">
<path d="M1022.62 1023.75C1058.08 988.893 1092.55 951.281 1120.32 910.465C1123.08 906.205 1113.33 892.928 1107.66 894.285C1071.65 900.47 1035.57 903.074 1000.09 886.935C962.672 868.857 925.293 852.58 887.881 834.495C867.736 824.901 671.171 735.58 677.545 720.853C683.926 706.132 743.249 726.786 753.78 730.274C818.79 749.571 883.933 776.033 946.235 803.171C1001.83 827.108 1058.55 860.982 1119.21 851.324C1159.97 844.607 1191.8 818.423 1214.98 787.093C1252.96 733.642 1270.65 663.435 1274.16 596.605C1274.09 593.017 1267.17 579.068 1262.47 581.395C1196.46 610.332 1124.51 626.285 1048.31 618.66C1005.45 614.478 967.197 602.602 925.109 588.644C909.809 583.894 832.476 566.334 834.909 544.156C836.513 528.179 874.661 534.674 886.079 535.555C921.323 539.145 957.564 545.507 993.812 551.863C1060.56 562.347 1153.16 582.864 1213.45 553.487C1237 541.874 1247.99 519.451 1246.55 493.399C1245.24 474.512 1238.26 456.982 1231.27 439.444C1213.4 398.709 1194.58 358.802 1177.68 319.037C1153.75 259.946 1131.7 199.214 1119.14 137.417C1114.01 118.249 1109.86 100.033 1110.46 81.2916C1110.4 77.7034 1104.45 64.7247 1098.77 66.0814C1032.4 75.3082 956.666 41.7694 891.656 22.4718C839.078 6.81566 758.733 -19.0268 720.591 25.466C682.413 68.1643 697.017 137.271 697.097 191.853C697.366 206.182 699.001 242.991 674.182 237.512C652.231 233.141 654.233 187.671 653.966 173.342C653.058 124.963 659.629 69.9999 669.245 25.1141C670.108 20.7075 664.199 9.51731 657.516 8.11542C610.811 1.85474 562.274 -0.97057 516.809 8.06723C504.479 9.79718 484.576 12.7444 473.351 22.6211C450.908 42.3687 442.22 86.4369 437.052 114.67C430.071 148.132 427.906 184.637 429.516 219.661C430.088 250.124 433.529 281.697 436.008 312.309C438.177 326.789 445.399 356.859 438.021 368.824C428.804 384.218 405.277 346.631 400.407 340.001C371.174 301.978 352.291 258.483 344.8 214.07C336.347 168.695 340.148 117.994 357.445 77.2662C359.278 73.8297 350.432 57.9416 344.786 61.0858C171.56 151.586 13.6732 299.615 1.2975 501.737C-2.26875 564.985 15.1802 633.415 67.4265 682.156C110.963 722.171 169.316 741.854 224.637 751.462C247.524 755.008 271.342 757.723 294.155 757.688L165.053 869.447L187.34 891.735L315.398 775.41C296.228 817.773 279.93 861.258 288.457 910.216C306.476 1009.11 411.41 1078.88 497.84 1124.87C596.759 1178.08 699.756 1194.92 800.866 1162.41C887.849 1136.88 961.965 1084.41 1022.63 1023.75L1022.62 1023.75ZM857.107 1120.2C778.944 1159.83 686.112 1177.77 592.467 1152.7C527.492 1135.2 464.051 1098.13 409.129 1059.03C366.73 1028.94 326.11 991.83 309.06 944.9C287.003 884.161 311.685 831.489 335.43 779.63C335.464 781.424 335.464 781.424 335.498 783.219C334.635 787.625 335.666 792.177 336.697 796.729C337.727 801.28 337.835 806.657 338.866 811.209C340.004 821.138 342.112 832.037 346.121 843.075C348.229 853.974 352.238 865.012 358.146 876.202C362.154 887.24 368.069 898.437 373.015 908.652C395.699 952.438 426.838 990.607 451.126 1018.42C476.35 1045.4 495.659 1061.19 495.659 1061.19C495.659 1061.19 477.279 1044.57 453.936 1015.95C430.578 987.319 401.311 947.5 381.496 904.824C376.552 894.61 372.543 883.56 368.535 872.522C364.527 861.483 361.482 851.408 359.38 840.504C357.272 829.606 356.134 819.677 354.066 810.579C353.035 806.027 352.928 800.65 352.867 797.069C351.836 792.517 352.699 788.11 352.632 784.522C352.463 775.564 354.236 768.546 355.065 762.344C355.968 759.726 355.927 757.938 355.9 756.15C365.622 767.633 378.249 782.019 393.791 799.31C411.261 818.54 431.682 842.47 453.995 866.544C464.687 878.997 476.343 892.413 487.972 904.042C499.634 917.465 512.226 930.057 523.887 943.478L561.676 981.267C567.49 987.081 574.275 993.866 581.019 998.849C587.769 1003.84 593.584 1009.65 601.298 1015.61C607.112 1021.42 613.863 1026.41 620.614 1031.4C627.365 1036.39 634.116 1041.38 639.89 1045.41C652.421 1054.42 664.913 1061.64 676.473 1069.68C683.19 1072.88 687.995 1075.93 692.812 1078.99C698.559 1081.22 703.363 1084.27 709.116 1086.5C718.704 1090.82 728.264 1093.34 735.912 1095.72C743.559 1098.1 749.272 1098.53 753.079 1098.83L758.786 1099.26C758.786 1099.26 756.879 1099.12 753.079 1098.83C749.266 1098.53 742.589 1097.13 735.872 1093.93C728.225 1091.55 719.601 1088.21 710.013 1083.89C705.202 1080.84 699.462 1078.61 694.644 1075.55C689.834 1072.5 684.054 1068.48 678.306 1066.24C667.715 1059.17 655.191 1050.16 643.596 1040.32C637.815 1036.3 632.001 1030.49 625.25 1025.5C619.436 1019.69 612.685 1014.7 606.87 1008.88C601.056 1003.07 595.241 997.252 588.49 992.261L570.084 973.855C557.485 961.256 546.799 948.809 535.138 935.387C523.475 921.965 512.75 907.73 502.058 895.278C491.332 881.031 480.64 868.59 469.948 856.138C449.501 830.422 430.023 805.662 413.483 785.614C396.95 765.56 384.25 747.59 374.528 736.107C372.587 734.167 371.59 731.409 370.62 730.439L411.734 692.44C415.574 694.519 419.455 698.4 424.265 701.45C431.016 706.44 438.737 712.401 449.321 719.476C458.005 726.4 470.504 733.629 482.065 741.669C493.626 749.709 507.088 757.901 521.519 767.064C535.951 776.226 551.318 784.551 566.686 792.889C583.024 802.197 599.323 809.706 615.667 819.007C632.005 828.316 650.21 835.969 667.484 844.453C684.758 852.937 702.93 858.797 720.204 867.281C738.381 873.147 754.679 880.654 771.88 885.556C789.088 890.452 805.358 896.172 821.589 900.105C836.89 904.855 852.157 907.81 866.488 911.603C879.848 914.413 893.216 917.229 904.642 918.104C915.133 919.803 926.56 920.679 934.173 921.263C951.307 922.576 959.864 922.342 959.864 922.342C959.864 922.342 950.343 921.613 934.14 919.481C925.556 917.927 916.036 917.198 904.575 914.528C894.085 912.828 880.725 910.018 866.387 906.231C852.056 902.452 837.718 898.665 822.417 893.916C807.116 889.167 790.845 883.446 773.644 878.543C757.373 872.823 739.169 865.17 721.927 858.481C704.653 849.996 687.418 843.313 670.144 834.829C652.87 826.345 635.601 817.867 619.263 808.56C602.925 799.251 586.594 789.95 571.219 781.617C555.817 771.485 541.386 762.334 527.925 754.143C514.424 744.163 500.962 735.97 489.401 727.931C477.84 719.89 467.256 712.815 457.594 704.914C448.91 697.99 440.218 691.059 433.475 686.064C428.664 683.014 425.754 680.103 423.82 678.17L540.66 571.716C544.5 573.795 550.281 577.816 556.998 581.024C560.838 583.104 564.685 585.19 569.489 588.246C574.3 591.296 578.147 593.382 583.887 595.614C594.438 600.896 605.973 607.148 619.399 613.545C632.826 619.943 647.191 625.516 662.526 632.061C677.86 638.605 695.067 643.5 711.339 649.22C727.611 654.94 746.718 659.988 763.918 664.876C782.055 668.954 800.233 674.821 818.37 678.884C836.507 682.962 854.65 687.033 873.725 690.287C891.863 694.365 909.973 696.643 927.141 699.749C944.308 702.856 960.512 704.988 976.715 707.133C992.912 709.27 1007.22 711.262 1021.51 713.249C1076.77 719.27 1114.82 720.401 1114.82 720.401C1114.82 720.401 1077.71 718.452 1021.45 709.667C1007.16 707.681 992.858 705.683 977.591 702.727C961.394 700.59 945.156 696.664 927.983 693.563C910.816 690.456 892.671 686.384 874.534 682.305C856.396 678.227 839.189 673.332 820.082 668.297C801.904 662.431 783.766 658.353 765.596 652.493C747.419 646.627 731.147 640.907 713.92 634.218C696.679 627.528 681.378 622.778 666.98 615.41C651.646 608.866 638.218 602.468 625.753 597.046C613.262 589.824 602.697 584.541 592.147 579.26C587.337 576.21 582.526 573.16 578.686 571.068C574.845 568.988 570.028 565.931 567.125 563.027C562.314 559.978 558.467 557.891 555.564 554.987L720.104 406.562C722.981 407.678 727.751 408.94 734.468 412.136C740.215 414.361 745.955 416.593 753.616 418.972C760.333 422.168 769.887 424.692 778.504 428.04C788.058 430.564 797.652 434.876 809.105 437.539C820.565 440.209 831.082 443.696 842.543 446.366C854.003 449.036 866.394 450.876 879.76 453.691C892.157 455.537 905.484 456.553 917.875 458.405C930.238 458.457 942.635 460.303 954.984 460.354C967.347 460.406 979.704 460.463 991.097 459.545C1002.49 458.627 1013.88 457.714 1024.3 455.825C1034.72 453.937 1045.14 452.054 1053.66 450.027C1062.18 447.993 1070.7 445.964 1077.31 443.784C1083.93 441.61 1090.54 439.429 1096.22 438.079C1106.6 434.402 1111.32 432.076 1111.32 432.076C1111.32 432.076 1106.61 434.396 1096.22 438.079C1090.54 439.429 1084.86 440.786 1078.24 442.965C1071.62 445.139 1062.14 446.204 1053.62 448.239C1044.14 449.303 1034.65 450.368 1024.23 452.243C1012.83 453.162 1002.38 453.256 990.99 454.168C979.597 455.086 967.2 453.24 954.844 453.181C942.48 453.129 930.083 451.283 917.7 449.439C905.304 447.593 892.913 445.754 881.453 443.083C869.992 440.413 857.568 436.78 846.108 434.11C835.584 430.616 823.16 426.983 813.6 424.464C803.076 420.97 793.489 416.665 784.872 413.318C776.255 409.97 767.631 406.627 760.921 403.426C754.204 400.23 747.493 397.028 742.709 395.765C739.833 394.649 738.869 393.685 735.992 392.569L851.995 290.499L854.838 289.822L854.804 288.027L1045.52 116.579L851.835 281.546C851.802 279.752 849.868 277.818 849.834 276.024C848.83 273.26 848.763 269.684 847.726 265.125C847.659 261.537 846.621 256.991 846.527 251.615C845.496 247.063 846.359 242.657 846.258 237.287C846.157 231.917 847.027 227.504 846.926 222.134C846.825 216.764 848.631 211.528 848.53 206.158C850.235 195.551 852.904 185.92 856.508 175.454C859.183 165.817 862.815 157.15 865.523 149.309C871.904 134.588 876.478 125.104 876.478 125.104C876.478 125.104 870.003 134.449 862.652 148.2C858.98 155.079 853.434 163.593 850.759 173.23C846.184 182.714 842.579 193.181 838.974 203.636C837.175 208.866 835.369 214.09 835.47 219.473C833.671 224.703 833.765 230.079 831.966 235.31C832.066 240.68 830.261 245.917 830.362 251.287C830.462 256.657 829.593 261.069 830.63 265.615C831.661 270.167 831.735 273.75 831.802 277.338C831.87 280.926 832.873 283.678 833.877 286.442C834.908 290.994 834.982 294.577 834.982 294.577L837.825 293.899L625.419 475.335C624.449 474.364 623.451 471.607 621.511 469.667C618.574 464.969 614.7 461.095 611.715 454.601C608.744 448.109 603.86 441.477 599.919 434.014C595.977 426.552 591.996 417.301 588.022 408.058C583.111 399.626 581.009 388.734 577.027 379.483C573.046 370.232 569.974 358.37 566.936 348.289C563.891 338.215 560.819 326.352 558.711 315.454C556.604 304.556 554.501 293.663 553.329 281.94C551.221 271.041 550.056 259.325 548.918 249.397C547.78 239.469 547.578 228.716 546.439 218.786C545.3 208.857 545.133 199.899 545.935 191.911C545.296 157.871 547.736 135.687 547.736 135.687C547.736 135.687 544.332 156.895 543.072 190.795C543.24 199.753 542.438 207.741 542.64 218.494C541.871 228.277 543.01 238.206 543.211 248.958C543.413 259.711 543.615 270.464 545.716 281.356C546.888 293.078 548.99 303.971 550.162 315.694C552.271 326.592 553.436 338.309 556.514 350.177C558.622 361.076 561.694 372.938 564.738 383.012C567.783 393.087 569.885 403.979 574.83 414.206C578.811 423.456 581.843 433.53 585.79 440.986C589.731 448.448 593.679 455.905 597.621 463.368C600.592 469.86 604.506 475.522 607.444 480.22C609.411 483.948 612.321 486.859 613.318 489.616L471.004 607.518L466.159 602.674C462.286 598.8 458.378 593.132 453.5 586.493C448.622 579.855 442.774 572.246 437.864 563.827C432.952 555.395 427.071 546.005 421.189 536.602C416.244 526.387 409.392 516.015 404.447 505.8C398.532 494.615 392.616 483.418 387.639 471.411C382.661 459.404 376.744 448.205 372.703 435.374C362.739 411.35 353.726 386.504 344.733 363.45C336.676 339.573 329.629 318.453 323.58 300.106C312.417 262.572 306.233 237.047 306.233 237.047C306.233 237.047 310.511 262.426 320.737 300.785C325.857 319.964 331.967 341.907 338.119 365.638C345.206 388.546 353.289 414.21 362.31 439.064C366.352 451.896 371.338 463.912 376.309 475.925C381.287 487.933 386.273 499.949 391.244 511.962C396.223 523.97 401.168 534.197 407.083 545.381C412.028 555.596 417.909 564.998 422.821 573.431C427.733 581.864 432.644 590.284 437.521 596.921C441.462 604.383 446.306 609.228 450.22 614.89C453.124 617.794 454.128 620.558 456.068 622.498L377.473 689.83C370.628 679.464 360.9 667.988 348.3 655.389L324.079 631.168C315.361 622.45 305.699 614.548 296.046 606.655C286.392 598.761 275.767 589.897 265.149 581.028C254.524 572.164 243.901 563.3 234.211 553.611L205.146 524.546C196.394 514.033 187.676 505.315 179.855 493.985C172.073 484.443 165.215 474.075 158.371 463.711C155.433 459.013 152.496 454.315 149.545 449.616C146.608 444.918 143.67 440.22 141.69 436.491C136.778 428.059 133.767 419.778 129.833 412.322C126.821 404.042 124.82 398.52 122.819 392.998C118.811 381.96 119.64 375.759 119.64 375.759C119.64 375.759 120.711 382.099 122.819 392.998C124.82 398.52 125.891 404.86 128.903 413.141C130.944 420.451 134.919 429.708 139.83 438.128C142.767 442.826 143.811 447.378 146.749 452.076C149.686 456.774 152.624 461.472 154.638 466.995C160.513 476.391 167.371 486.758 175.185 498.094C182.03 508.46 190.789 518.966 199.54 529.478C208.292 539.99 217.043 550.502 226.732 560.191L255.797 589.256C265.485 598.945 276.109 607.808 284.828 616.526L310.988 642.687C319.706 651.405 327.46 659.159 333.301 666.761C340.086 673.545 345.927 681.147 350.804 687.784C355.682 694.422 358.619 699.12 360.6 702.849L347.508 714.369L343.695 714.076C342.758 714.9 337.988 713.639 334.275 718.717C244.68 706.488 154.212 647.658 84.7085 592.229C67.333 578.374 72.4529 597.554 83.0775 606.418C150.626 659.906 237.256 716.643 323.205 737.54L314.79 744.945C244.502 748.503 164.435 736.996 101.952 700.899C31.7948 660.634 8.60023 589.967 12.0317 519.554C20.6666 420.906 60.8379 332.729 118.451 262.001C176.101 193.063 252.957 134.544 333.905 90.6381C326.863 120.519 325.562 152.618 328.039 183.228C334.059 250.782 368.943 336.659 427.841 385.008C464.519 414.655 450.756 339.349 449.511 324.043C442.392 248.35 436.163 170.035 459.54 98.4778C467.584 71.3625 476.534 41.6269 504.865 31.2768C551.132 14.2512 605.343 15.7187 655.861 22.2717C649.015 62.8972 644.081 103.676 643.885 143.911C644.355 168.992 643.158 257.474 692.54 254.099C712.483 252.94 712.982 228.829 713.643 213.669C714.938 181.563 708.619 148.874 710.89 117.732C712.15 83.8317 720.905 43.3525 754.81 26.2738C783.068 12.3403 820.252 17.8704 852.721 25.7286C898.555 36.403 944.492 52.4453 989.416 65.7307C1024.8 76.4989 1063.98 87.5509 1100.99 84.1252C1102.07 141.466 1127.03 205.109 1146.08 257.561C1160.15 297.998 1176.09 336.802 1193.94 375.736C1207.83 407.215 1227.45 439.139 1233.76 471.83C1240.08 504.52 1225.32 528.439 1193.22 540.294C1158.28 552.825 1116.39 549.614 1079.24 545.872C1035.44 542.514 992.519 534.752 948.657 527.812C928.647 525.382 808.287 494.688 825.326 541.619C834.38 568.253 865.083 583.136 889.971 592.204C934.937 607.278 979.936 624.145 1026.67 632.206C1109.65 646.617 1188.32 633.86 1259.99 603.571C1253.46 660.327 1236.49 718.965 1206 765.828C1181.05 804.171 1141.67 833.365 1091.29 833.969C1057.09 834.923 1024.51 821.69 992.879 807.638C951.652 789.274 910.432 770.904 869.24 754.322C853.905 747.778 663.249 669.649 667.83 711.152C670.14 732.803 703.746 750.588 721.054 760.854C766.255 788.475 815.163 811.01 862.168 833.395C910.138 856.755 958.075 878.321 1006.03 899.887C1021.36 906.431 1035.76 913.799 1051.96 915.93C1067.19 917.098 1082.4 916.472 1096.63 914.881C1032.59 998.558 950.321 1072.77 857.087 1120.19L857.107 1120.2Z" fill="black" fill-opacity="0.03"/>
</svg>
