<svg width="151" height="150" fill="none" xmlns="http://www.w3.org/2000/svg"><path d="M149.614 73.682l-.14-.218c-1.931-3-5.112-7.473-9.044-11.46 2.437-5.988 3.557-11.892 3.939-13.939l.071-.38a2.421 2.421 0 00-1.033-2.476l-.387-.263c-1.717-1.17-6.675-4.534-12.573-7.02-.041-5.589-.954-10.99-1.705-14.47l-.059-.271a2.421 2.421 0 00-1.865-1.866l-.271-.058c-3.481-.75-8.882-1.665-14.47-1.706-2.487-5.896-5.849-10.856-7.02-12.573l-.264-.387a2.423 2.423 0 00-2.476-1.032l-.38.07c-2.046.382-7.947 1.503-13.935 3.94C84.015 5.64 79.54 2.461 76.537.53L76.32.39a2.413 2.413 0 00-2.632 0l-.218.14c-3 1.931-7.477 5.11-11.465 9.041-5.986-2.437-11.887-3.554-13.935-3.939l-.38-.07a2.43 2.43 0 00-2.476 1.032l-.264.387c-1.17 1.717-4.534 6.677-7.02 12.573-5.589.041-10.989.954-14.47 1.704l-.271.058a2.422 2.422 0 00-1.865 1.865l-.059.271c-.753 3.482-1.664 8.882-1.705 14.47-5.896 2.488-10.856 5.85-12.574 7.02l-.386.264a2.416 2.416 0 00-1.033 2.476l.07.38C6.02 50.11 7.14 56.01 9.572 61.996 5.641 65.984 2.464 70.462.531 73.461l-.14.218c-.521.8-.521 1.832 0 2.633l.14.218C2.464 79.532 5.639 84.01 9.57 88c-2.434 5.986-3.551 11.884-3.936 13.931l-.07.38a2.42 2.42 0 001.033 2.476l.386.263c1.718 1.171 6.675 4.534 12.574 7.021.04 5.588.953 10.988 1.705 14.47l.058.271a2.422 2.422 0 001.866 1.865l.27.058c3.482.75 8.884 1.674 14.476 1.716 2.484 5.89 5.846 10.846 7.016 12.563l.264.387a2.425 2.425 0 002.013 1.077c.152 0 .31-.014.462-.047l.38-.07c2.047-.382 7.948-1.502 13.935-3.939 3.988 3.931 8.464 7.11 11.466 9.041l.218.141c.4.265.86.396 1.317.396.457 0 .917-.131 1.317-.39l.218-.14c3-1.932 7.477-5.11 11.465-9.042 5.986 2.437 11.886 3.555 13.935 3.939l.381.071a2.42 2.42 0 002.475-1.031l.264-.386c1.17-1.716 4.528-6.671 7.016-12.564 5.588-.043 10.994-.963 14.475-1.715l.271-.059a2.419 2.419 0 001.865-1.865l.059-.271c.753-3.481 1.664-8.881 1.705-14.47 5.896-2.487 10.856-5.849 12.574-7.02l.386-.264a2.416 2.416 0 001.033-2.475l-.07-.381c-.383-2.046-1.503-7.944-3.936-13.93 3.931-3.988 7.108-8.468 9.039-11.469l.14-.218c.52-.806.52-1.836-.001-2.638zM130.199 43.1c3.955 1.836 7.342 3.994 9.191 5.233-.755 3.777-1.691 7.188-2.792 10.2-3.02-2.42-6.333-4.287-9.791-4.983 1.95-2.944 2.968-6.604 3.392-10.45zm-5.928-17.369c1.399 7.065 3.834 24.656-5.485 28.524l-10.04 4.16a37.59 37.59 0 00-5.508-8.231l7.674-7.674a2.416 2.416 0 000-3.42 2.416 2.416 0 00-3.421 0l-7.674 7.673a37.743 37.743 0 00-8.23-5.508l4.16-10.04c3.871-9.32 21.465-6.886 28.523-5.485l.001.001zm-49.267 82.076c-18.092 0-32.81-14.717-32.81-32.81 0-18.091 14.718-32.809 32.81-32.809 18.093 0 32.81 14.718 32.81 32.81 0 18.092-14.717 32.809-32.81 32.809zm26.666-97.195c1.239 1.848 3.397 5.235 5.233 9.191-3.844.422-7.504 1.442-10.444 3.388-.697-3.458-2.562-6.77-4.983-9.789 3.014-1.102 6.423-2.037 10.195-2.79h-.001zM75.004 5.308c6 4.014 20.146 14.72 16.275 24.05l-4.154 10.03a37.327 37.327 0 00-9.7-1.916V26.633a2.417 2.417 0 00-2.418-2.42 2.417 2.417 0 00-2.42 2.42v10.838a37.32 37.32 0 00-9.699 1.917l-4.154-10.03c-3.875-9.33 10.27-20.037 16.27-24.05zM48.338 10.61c3.774.755 7.184 1.69 10.195 2.79-2.421 3.02-4.287 6.331-4.983 9.79-2.94-1.944-6.6-2.963-10.444-3.384 1.836-3.958 3.994-7.348 5.233-9.196zm-22.601 15.12c7.065-1.402 24.656-3.833 28.524 5.484l4.159 10.04a37.608 37.608 0 00-8.23 5.508l-7.674-7.673a2.416 2.416 0 00-3.421 0 2.416 2.416 0 000 3.42l7.674 7.674a37.74 37.74 0 00-5.508 8.23l-10.04-4.159c-9.32-3.87-6.884-21.461-5.485-28.524zm-15.12 22.6c1.849-1.238 5.24-3.396 9.192-5.232.421 3.844 1.442 7.502 3.385 10.442-3.457.697-6.77 2.562-9.789 4.983-1.1-3.014-2.034-6.42-2.787-10.192zM5.315 74.999c4.016-6 14.735-20.13 24.052-16.275l10.028 4.154a37.33 37.33 0 00-1.916 9.7H26.64a2.417 2.417 0 00-2.42 2.419 2.417 2.417 0 002.42 2.419h10.838a37.322 37.322 0 001.916 9.699L29.366 91.27C20.026 95.149 9.33 80.998 5.314 74.997zm14.495 31.9c-3.955-1.837-7.342-3.995-9.191-5.234.753-3.771 1.689-7.18 2.79-10.19 3.02 2.42 6.329 4.29 9.786 4.989-1.946 2.938-2.965 6.596-3.385 10.435zm11.41-11.156l10.04-4.159a37.608 37.608 0 005.508 8.23l-7.674 7.674a2.416 2.416 0 001.71 4.129c.62 0 1.24-.237 1.712-.708l7.673-7.674a37.745 37.745 0 008.23 5.508l-4.159 10.041c-3.87 9.318-21.464 6.885-28.523 5.484-1.397-7.065-3.834-24.656 5.483-28.523v-.002zm17.12 43.643c-1.24-1.851-3.402-5.245-5.241-9.205 3.847-.424 7.51-1.433 10.45-3.378.696 3.46 2.562 6.772 4.983 9.794-3.012 1.101-6.421 2.036-10.193 2.789zm26.665 5.303c-6-4.013-20.145-14.719-16.274-24.051l4.156-10.028a37.324 37.324 0 009.699 1.916v10.838a2.417 2.417 0 002.42 2.42 2.417 2.417 0 002.419-2.42v-10.838a37.314 37.314 0 009.699-1.916l4.154 10.028c3.873 9.332-10.273 20.038-16.273 24.051zm26.666-5.303c-3.773-.755-7.183-1.689-10.195-2.79 2.422-3.02 4.287-6.333 4.984-9.794 2.94 1.947 6.602 2.956 10.45 3.378-1.837 3.963-3.998 7.358-5.239 9.206zm22.602-15.119c-7.059 1.403-24.656 3.832-28.524-5.485l-4.16-10.04a37.59 37.59 0 008.231-5.508l7.674 7.674a2.417 2.417 0 103.422-3.421l-7.674-7.674a37.745 37.745 0 005.508-8.23l10.041 4.16c9.318 3.87 6.882 21.46 5.483 28.523l-.001.001zm15.119-22.602c-1.848 1.239-5.238 3.397-9.191 5.234-.422-3.842-1.44-7.498-3.383-10.437 3.457-.697 6.767-2.57 9.787-4.99 1.099 3.015 2.034 6.422 2.787 10.193zm-18.75-10.39l-10.029-4.155a37.323 37.323 0 001.916-9.699h10.839a2.417 2.417 0 002.419-2.42 2.417 2.417 0 00-2.419-2.419h-10.839a37.315 37.315 0 00-1.916-9.699l10.029-4.154c9.338-3.875 20.034 10.273 24.051 16.275-4.014 5.996-14.731 20.127-24.051 16.27z" fill="#383737"/></svg>