<svg width="174" height="150" fill="none" xmlns="http://www.w3.org/2000/svg"><path d="M39.606 54.993a2.81 2.81 0 00-3.469 0L1.069 82.601a2.811 2.811 0 00-1.056 2.47l4.972 52.142c.081.846.54 1.61 1.25 2.076l15.572 10.248c.456.3.992.463 1.542.463h29.046c.547 0 1.086-.163 1.543-.463l15.57-10.248a2.8 2.8 0 001.251-2.076l4.973-52.142a2.81 2.81 0 00-1.057-2.47l-35.07-27.608zm8.798 39.743H27.336L37.87 65.471l10.533 29.265zm-26.523-1.402L7.685 84.533l24.232-19.081L21.88 93.334zm4.27 7.01H49.59v44.048H26.15v-44.048zm27.71-7.01l-10.035-27.88 24.232 19.079-14.197 8.801zM6.135 90.166l14.41 8.934v42.891l-10.102-6.649-4.308-45.176zM65.3 135.341l-10.103 6.651v-42.89l14.41-8.934L65.3 135.34zm64.188-75.058c-24.462 0-44.36 19.904-44.36 44.362 0 24.46 19.899 44.361 44.36 44.361 24.463 0 44.362-19.898 44.362-44.358 0-24.463-19.9-44.365-44.362-44.365zm0 83.118c-21.369 0-38.753-17.385-38.753-38.753 0-21.37 17.385-38.754 38.753-38.754 21.369 0 38.754 17.382 38.754 38.754 0 21.365-17.385 38.753-38.754 38.753zM62.667 51.108h10.07v10.07a2.803 2.803 0 002.804 2.804h15.865a2.803 2.803 0 002.804-2.804l-.001-10.07h10.069a2.803 2.803 0 002.804-2.803V32.438a2.803 2.803 0 00-2.804-2.804h-10.07v-10.07a2.803 2.803 0 00-2.803-2.803H75.54a2.803 2.803 0 00-2.805 2.804v10.07H62.666a2.803 2.803 0 00-2.804 2.803v15.865a2.805 2.805 0 002.805 2.804zm2.804-15.865h10.07a2.804 2.804 0 002.804-2.804V22.37h10.257v10.07a2.803 2.803 0 002.804 2.804h10.07v10.258h-10.07a2.803 2.803 0 00-2.804 2.803v10.07H78.345l-.001-10.07a2.803 2.803 0 00-2.804-2.803H65.47l.001-10.258zm56.308-9.365h5.644v5.645a2.804 2.804 0 002.805 2.804h10.413a2.804 2.804 0 002.804-2.804v-5.645h5.647a2.804 2.804 0 002.804-2.804l.001-10.415a2.804 2.804 0 00-2.804-2.804h-5.647l-.001-5.646a2.804 2.804 0 00-2.804-2.804h-10.413a2.804 2.804 0 00-2.805 2.804v5.646h-5.644a2.804 2.804 0 00-2.804 2.804v10.418a2.803 2.803 0 002.804 2.801zm2.804-10.415h5.645a2.804 2.804 0 002.804-2.804V7.013h4.805v5.646a2.804 2.804 0 002.804 2.804h5.647v4.81h-5.647a2.804 2.804 0 00-2.804 2.804v5.644h-4.805v-5.644a2.804 2.804 0 00-2.804-2.804h-5.645v-4.81zM17.854 24.47h5.644v5.647a2.803 2.803 0 002.804 2.804h10.414a2.803 2.803 0 002.804-2.804V24.47h5.647a2.803 2.803 0 002.804-2.804l.001-10.411a2.803 2.803 0 00-2.804-2.804h-5.647V2.804A2.803 2.803 0 0036.715 0H26.302a2.803 2.803 0 00-2.804 2.804v5.647h-5.644a2.803 2.803 0 00-2.804 2.804v10.414a2.8 2.8 0 002.804 2.801zm2.804-10.411h5.644a2.803 2.803 0 002.804-2.804V5.608h4.806v5.647a2.803 2.803 0 002.804 2.804h5.647v4.806h-5.647a2.803 2.803 0 00-2.804 2.804v5.646h-4.806v-5.649a2.803 2.803 0 00-2.804-2.804h-5.644v-4.803zm94.981 62.028c-6.275 0-11.379 5.104-11.379 11.382 0 6.277 5.104 11.381 11.379 11.381 6.275 0 11.382-5.104 11.382-11.381.001-6.278-5.107-11.382-11.382-11.382zm0 17.152a5.78 5.78 0 01-5.771-5.773 5.78 5.78 0 015.771-5.774 5.782 5.782 0 015.774 5.774 5.78 5.78 0 01-5.774 5.773z" fill="#383737"/></svg>