<svg width="28" height="22" viewBox="0 0 28 22" fill="none" xmlns="http://www.w3.org/2000/svg">
<path d="M26.5998 0.00921724C26.4806 -0.00307241 26.3604 -0.00307241 26.2411 0.00921724H1.74109C1.58407 0.0116367 1.42809 0.0351814 1.27734 0.0792172L13.9211 12.6705L26.5998 0.00921724Z" fill="#383737"/>
<path d="M27.895 1.22559L15.155 13.9131C14.8271 14.239 14.3836 14.422 13.9212 14.422C13.4589 14.422 13.0154 14.239 12.6875 13.9131L0.06125 1.32184C0.0224345 1.4645 0.00185385 1.6115 0 1.75934V19.2593C0 19.7235 0.184375 20.1686 0.512563 20.4968C0.840752 20.825 1.28587 21.0093 1.75 21.0093H26.25C26.7141 21.0093 27.1592 20.825 27.4874 20.4968C27.8156 20.1686 28 19.7235 28 19.2593V1.75934C27.993 1.57703 27.9576 1.39694 27.895 1.22559V1.22559ZM2.94875 19.2593H1.7325V18.0081L8.09375 11.6993L9.3275 12.9331L2.94875 19.2593ZM26.2325 19.2593H25.0075L18.6287 12.9331L19.8625 11.6993L26.2237 18.0081L26.2325 19.2593Z" fill="#383737"/>
</svg>
