<svg width="26" height="25" viewBox="0 0 26 25" fill="none" xmlns="http://www.w3.org/2000/svg">
<path d="M24.9471 7.37887C24.9332 6.32917 24.7366 5.28991 24.3664 4.30757C24.0454 3.47898 23.555 2.72646 22.9266 2.09811C22.2983 1.46976 21.5458 0.979392 20.7172 0.658333C19.7475 0.294319 18.723 0.0974904 17.6875 0.0762281C16.3542 0.0166316 15.9314 0 12.5469 0C9.1624 0 8.72859 9.29361e-08 7.405 0.0762281C6.3699 0.0976467 5.34594 0.294473 4.37667 0.658333C3.54794 0.979168 2.79531 1.46946 2.16693 2.09784C1.53855 2.72622 1.04826 3.47885 0.727424 4.30757C0.362682 5.27654 0.16628 6.30074 0.146706 7.3359C0.0871093 8.67059 0.0690918 9.0933 0.0690918 12.4778C0.0690918 15.8623 0.0690918 16.2948 0.146706 17.6197C0.167495 18.6564 0.362916 19.6793 0.727424 20.6509C1.0488 21.4793 1.53945 22.2317 2.16804 22.8598C2.79663 23.4879 3.54933 23.978 4.37805 24.2987C5.34467 24.6773 6.36881 24.8883 7.40638 24.9224C8.74106 24.982 9.16378 25 12.5483 25C15.9328 25 16.3666 25 17.6902 24.9224C18.7258 24.902 19.7503 24.7056 20.7199 24.3417C21.5483 24.0202 22.3006 23.5297 22.9289 22.9014C23.5573 22.2731 24.0478 21.5208 24.3692 20.6924C24.7337 19.7223 24.9291 18.6994 24.9499 17.6613C25.0095 16.328 25.0275 15.9053 25.0275 12.5194C25.0247 9.13488 25.0247 8.70523 24.9471 7.37887V7.37887ZM12.5386 18.8782C8.99885 18.8782 6.13129 16.0106 6.13129 12.4709C6.13129 8.93115 8.99885 6.06359 12.5386 6.06359C14.2379 6.06359 15.8677 6.73864 17.0693 7.94025C18.2709 9.14185 18.9459 10.7716 18.9459 12.4709C18.9459 14.1702 18.2709 15.7999 17.0693 17.0015C15.8677 18.2031 14.2379 18.8782 12.5386 18.8782V18.8782ZM19.2009 7.32066C19.0047 7.32084 18.8103 7.28232 18.629 7.2073C18.4476 7.13228 18.2828 7.02223 18.1441 6.88346C18.0053 6.74469 17.8952 6.57991 17.8202 6.39856C17.7452 6.21721 17.7067 6.02284 17.7069 5.82659C17.7069 5.63048 17.7455 5.43628 17.8205 5.2551C17.8956 5.07391 18.0056 4.90929 18.1443 4.77061C18.2829 4.63194 18.4476 4.52194 18.6287 4.44689C18.8099 4.37184 19.0041 4.33321 19.2002 4.33321C19.3963 4.33321 19.5905 4.37184 19.7717 4.44689C19.9529 4.52194 20.1175 4.63194 20.2562 4.77061C20.3949 4.90929 20.5049 5.07391 20.5799 5.2551C20.655 5.43628 20.6936 5.63048 20.6936 5.82659C20.6936 6.65262 20.0256 7.32066 19.2009 7.32066Z" fill="#383737"/>
<path d="M12.5385 16.6346C14.8371 16.6346 16.7006 14.7712 16.7006 12.4726C16.7006 10.174 14.8371 8.31055 12.5385 8.31055C10.2399 8.31055 8.37646 10.174 8.37646 12.4726C8.37646 14.7712 10.2399 16.6346 12.5385 16.6346Z" fill="#383737"/>
</svg>
