<svg width="26" height="25" viewBox="0 0 26 25" fill="none" xmlns="http://www.w3.org/2000/svg">
<g clip-path="url(#clip0_549_61)">
<path d="M0.0273438 12.5C0.0273438 17.8365 3.37214 22.3927 8.07943 24.1854C7.96484 23.2094 7.84297 21.6 8.10547 20.4708C8.33151 19.5 9.56484 14.2854 9.56484 14.2854C9.56484 14.2854 9.19297 13.5406 9.19297 12.4375C9.19297 10.7083 10.1951 9.41667 11.444 9.41667C12.5065 9.41667 13.019 10.2135 13.019 11.1687C13.019 12.2365 12.3388 13.8323 11.9878 15.3125C11.6951 16.551 12.6096 17.5615 13.8305 17.5615C16.0419 17.5615 17.743 15.2292 17.743 11.8625C17.743 8.88229 15.6013 6.8 12.544 6.8C9.00443 6.8 6.9263 9.45521 6.9263 12.2C6.9263 13.2698 7.33776 14.4156 7.85234 15.0396C7.89621 15.0867 7.92721 15.1443 7.94236 15.2069C7.9575 15.2695 7.95627 15.3349 7.9388 15.3969C7.84401 15.7906 7.63359 16.6354 7.59297 16.8083C7.53776 17.0354 7.41276 17.0844 7.1763 16.974C5.62214 16.251 4.6513 13.9792 4.6513 12.1542C4.6513 8.22812 7.50234 4.62396 12.8721 4.62396C17.1888 4.62396 20.544 7.7 20.544 11.8104C20.544 16.099 17.8409 19.551 14.0867 19.551C12.8253 19.551 11.6409 18.8948 11.2346 18.1208C11.2346 18.1208 10.6107 20.4979 10.4596 21.0792C10.1659 22.2083 9.3513 23.6375 8.84609 24.449C10.0107 24.8073 11.2461 25 12.5273 25C19.4305 25 25.0273 19.4031 25.0273 12.5C25.0273 5.59687 19.4305 0 12.5273 0C5.62422 0 0.0273438 5.59687 0.0273438 12.5Z" fill="#383737"/>
</g>
<defs>
<clipPath id="clip0_549_61">
<rect width="25" height="25" fill="white" transform="translate(0.0273438)"/>
</clipPath>
</defs>
</svg>
