<svg width="26" height="25" viewBox="0 0 26 25" fill="none" xmlns="http://www.w3.org/2000/svg">
<path d="M23.1943 5.7811C19.4442 -0.000191212 11.7879 -1.71895 5.85038 1.87482C0.0690832 5.4686 -1.80593 13.2812 1.9441 19.0625L2.2566 19.5312L1.00659 24.2187L5.69413 22.9687L6.16288 23.2812C8.19415 24.375 10.3817 25 12.5692 25C14.9129 25 17.2567 24.375 19.288 23.125C25.0693 19.375 26.788 11.7186 23.1943 5.7811V5.7811ZM19.913 17.8124C19.288 18.75 18.5067 19.375 17.413 19.5312C16.788 19.5312 16.0067 19.8437 12.8817 18.5937C10.2254 17.3437 8.03789 15.3124 6.47538 12.9687C5.53788 11.8749 5.06912 10.4686 4.91287 9.06238C4.91287 7.81237 5.38162 6.71861 6.16288 5.93736C6.47538 5.62485 6.78789 5.4686 7.10039 5.4686H7.88164C8.19415 5.4686 8.50665 5.4686 8.6629 6.09361C8.9754 6.87486 9.75666 8.74988 9.75666 8.90613C9.91291 9.06238 9.91291 9.37488 9.75666 9.53113C9.91291 9.84364 9.75666 10.1561 9.60041 10.3124C9.44416 10.4686 9.2879 10.7811 9.13165 10.9374C8.81915 11.0936 8.6629 11.4061 8.81915 11.7186C9.44416 12.6562 10.2254 13.5937 11.0067 14.3749C11.9442 15.1562 12.8817 15.7812 13.9754 16.2499C14.2879 16.4062 14.6004 16.4062 14.7567 16.0937C14.9129 15.7812 15.6942 14.9999 16.0067 14.6874C16.3192 14.3749 16.4755 14.3749 16.788 14.5312L19.288 15.7812C19.6005 15.9374 19.913 16.0937 20.0692 16.2499C20.2255 16.7187 20.2255 17.3437 19.913 17.8124V17.8124Z" fill="#383737"/>
</svg>
