<svg width="25" height="19" viewBox="0 0 25 19" fill="none" xmlns="http://www.w3.org/2000/svg">
<path d="M23.75 0.00822968C23.6435 -0.00274323 23.5362 -0.00274323 23.4297 0.00822968H1.55469C1.41449 0.0103899 1.27522 0.031412 1.14062 0.0707296L12.4297 11.3129L23.75 0.00822968Z" fill="#FFFBF5"/>
<path d="M24.9063 1.09473L13.5312 12.4229C13.2385 12.7139 12.8425 12.8772 12.4297 12.8772C12.0169 12.8772 11.6209 12.7139 11.3281 12.4229L0.0546875 1.18066C0.0200308 1.30804 0.00165522 1.43929 0 1.57129V17.1963C0 17.6107 0.16462 18.0081 0.457646 18.3011C0.750671 18.5942 1.1481 18.7588 1.5625 18.7588H23.4375C23.8519 18.7588 24.2493 18.5942 24.5424 18.3011C24.8354 18.0081 25 17.6107 25 17.1963V1.57129C24.9938 1.40852 24.9622 1.24772 24.9063 1.09473V1.09473ZM2.63281 17.1963H1.54688V16.0791L7.22656 10.4463L8.32812 11.5479L2.63281 17.1963ZM23.4219 17.1963H22.3281L16.6328 11.5479L17.7344 10.4463L23.4141 16.0791L23.4219 17.1963Z" fill="#FFFBF5"/>
</svg>
