<svg width="25" height="25" viewBox="0 0 25 25" fill="none" xmlns="http://www.w3.org/2000/svg">
<path d="M24.878 7.37887C24.8641 6.32917 24.6676 5.28991 24.2973 4.30757C23.9763 3.47898 23.4859 2.72646 22.8575 2.09811C22.2292 1.46976 21.4767 0.979392 20.6481 0.658333C19.6784 0.294319 18.6539 0.0974904 17.6184 0.0762281C16.2851 0.0166316 15.8623 0 12.4778 0C9.09331 0 8.6595 9.29361e-08 7.3359 0.0762281C6.30081 0.0976467 5.27684 0.294473 4.30757 0.658333C3.47885 0.979168 2.72622 1.46946 2.09784 2.09784C1.46946 2.72622 0.979168 3.47885 0.658332 4.30757C0.29359 5.27654 0.0971881 6.30074 0.0776139 7.3359C0.0180175 8.67059 0 9.0933 0 12.4778C0 15.8623 -1.03262e-08 16.2948 0.0776139 17.6197C0.0984034 18.6564 0.293824 19.6793 0.658332 20.6509C0.979706 21.4793 1.47036 22.2317 2.09895 22.8598C2.72754 23.4879 3.48024 23.978 4.30896 24.2987C5.27558 24.6773 6.29972 24.8883 7.33729 24.9224C8.67197 24.982 9.09469 25 12.4792 25C15.8637 25 16.2975 25 17.6211 24.9224C18.6567 24.902 19.6812 24.7056 20.6509 24.3417C21.4792 24.0202 22.2316 23.5297 22.8599 22.9014C23.4882 22.2731 23.9787 21.5208 24.3001 20.6924C24.6646 19.7223 24.86 18.6994 24.8808 17.6613C24.9404 16.328 24.9584 15.9053 24.9584 12.5194C24.9557 9.13488 24.9557 8.70523 24.878 7.37887V7.37887ZM12.4695 18.8782C8.92976 18.8782 6.0622 16.0106 6.0622 12.4709C6.0622 8.93115 8.92976 6.06359 12.4695 6.06359C14.1688 6.06359 15.7986 6.73864 17.0002 7.94025C18.2018 9.14185 18.8768 10.7716 18.8768 12.4709C18.8768 14.1702 18.2018 15.7999 17.0002 17.0015C15.7986 18.2031 14.1688 18.8782 12.4695 18.8782V18.8782ZM19.1318 7.32066C18.9356 7.32084 18.7412 7.28232 18.5599 7.2073C18.3785 7.13228 18.2137 7.02223 18.075 6.88346C17.9362 6.74469 17.8261 6.57991 17.7511 6.39856C17.6761 6.21721 17.6376 6.02284 17.6378 5.82659C17.6378 5.63048 17.6764 5.43628 17.7514 5.2551C17.8265 5.07391 17.9365 4.90929 18.0752 4.77061C18.2138 4.63194 18.3785 4.52194 18.5597 4.44689C18.7408 4.37184 18.935 4.33321 19.1311 4.33321C19.3273 4.33321 19.5214 4.37184 19.7026 4.44689C19.8838 4.52194 20.0484 4.63194 20.1871 4.77061C20.3258 4.90929 20.4358 5.07391 20.5108 5.2551C20.5859 5.43628 20.6245 5.63048 20.6245 5.82659C20.6245 6.65262 19.9565 7.32066 19.1318 7.32066Z" fill="#FFFBF5"/>
<path d="M12.4694 16.6346C14.768 16.6346 16.6314 14.7712 16.6314 12.4726C16.6314 10.174 14.768 8.31055 12.4694 8.31055C10.1707 8.31055 8.30731 10.174 8.30731 12.4726C8.30731 14.7712 10.1707 16.6346 12.4694 16.6346Z" fill="#FFFBF5"/>
</svg>
