<svg width="1275" height="1180" viewBox="0 0 1275 1180" fill="none" xmlns="http://www.w3.org/2000/svg">
<path d="M1022.62 1023.81C1058.08 988.958 1092.55 951.345 1120.32 910.53C1123.08 906.269 1113.33 892.992 1107.66 894.349C1071.65 900.534 1035.57 903.138 1000.09 886.999C962.671 868.921 925.293 852.645 887.88 834.559C867.736 824.965 671.171 735.645 677.545 720.917C683.926 706.196 743.249 726.85 753.78 730.338C818.79 749.636 883.933 776.097 946.235 803.236C1001.83 827.173 1058.55 861.046 1119.21 851.388C1159.97 844.671 1191.8 818.487 1214.98 787.157C1252.96 733.707 1270.65 663.499 1274.16 596.669C1274.09 593.081 1267.17 579.132 1262.47 581.459C1196.46 610.397 1124.51 626.349 1048.31 618.724C1005.45 614.542 967.197 602.667 925.109 588.708C909.809 583.959 832.476 566.398 834.908 544.22C836.513 528.243 874.66 534.738 886.079 535.62C921.323 539.21 957.564 545.572 993.812 551.927C1060.56 562.412 1153.16 582.929 1213.45 553.551C1237 541.939 1247.99 519.515 1246.55 493.463C1245.24 474.576 1238.26 457.046 1231.27 439.509C1213.4 398.773 1194.58 358.867 1177.68 319.102C1153.75 260.011 1131.7 199.278 1119.14 137.481C1114 118.313 1109.86 100.097 1110.46 81.3561C1110.4 77.7678 1104.45 64.7892 1098.77 66.1459C1032.4 75.3726 956.666 41.8339 891.656 22.5362C839.078 6.88011 758.733 -18.9623 720.59 25.5304C682.413 68.2287 697.017 137.336 697.097 191.918C697.366 206.246 699.001 243.056 674.182 237.576C652.231 233.206 654.233 187.735 653.966 173.407C653.058 125.027 659.629 70.0643 669.245 25.1786C670.108 20.7719 664.199 9.58176 657.516 8.17986C610.811 1.9192 562.273 -0.906109 516.809 8.13169C504.479 9.86164 484.576 12.8088 473.351 22.6856C450.908 42.4332 442.22 86.5013 437.052 114.734C430.071 148.197 427.906 184.702 429.516 219.725C430.088 250.189 433.529 281.762 436.008 312.373C438.177 326.853 445.398 356.924 438.021 368.889C428.803 384.282 405.277 346.696 400.407 340.065C371.174 302.042 352.291 258.548 344.8 214.135C336.347 168.759 340.148 118.058 357.445 77.3306C359.278 73.8941 350.432 58.006 344.786 61.1502C171.56 151.65 13.6731 299.68 1.29736 501.802C-2.26888 565.05 15.18 633.48 67.4265 682.22C110.962 722.235 169.316 741.919 224.637 751.527C247.524 755.073 271.341 757.788 294.155 757.752L165.053 869.512L187.34 891.799L315.398 775.474C296.228 817.837 279.929 861.322 288.457 910.281C306.476 1009.18 411.41 1078.95 497.84 1124.93C596.759 1178.14 699.755 1194.98 800.866 1162.48C887.849 1136.94 961.965 1084.47 1022.63 1023.81L1022.62 1023.81ZM857.106 1120.27C778.943 1159.9 686.112 1177.83 592.467 1152.77C527.492 1135.26 464.051 1098.19 409.129 1059.09C366.73 1029.01 326.11 991.895 309.06 944.965C287.002 884.225 311.685 831.554 335.43 779.695C335.464 781.489 335.464 781.489 335.497 783.283C334.635 787.69 335.666 792.241 336.696 796.793C337.727 801.345 337.835 806.722 338.865 811.274C340.004 821.202 342.112 832.101 346.121 843.14C348.229 854.038 352.238 865.077 358.146 876.266C362.154 887.305 368.069 898.502 373.015 908.716C395.699 952.502 426.838 990.671 451.126 1018.48C476.35 1045.47 495.659 1061.25 495.659 1061.25C495.659 1061.25 477.279 1044.63 453.935 1016.01C430.578 987.383 401.311 947.565 381.496 904.889C376.552 894.675 372.543 883.624 368.535 872.586C364.527 861.548 361.482 851.473 359.38 840.569C357.272 829.67 356.134 819.741 354.066 810.643C353.035 806.092 352.927 800.715 352.867 797.133C351.836 792.581 352.699 788.175 352.631 784.587C352.463 775.628 354.236 768.61 355.065 762.409C355.967 759.791 355.927 758.002 355.9 756.215C365.622 767.697 378.249 782.084 393.791 799.375C411.261 818.605 431.681 842.534 453.995 866.609C464.687 879.061 476.343 892.478 487.972 904.106C499.634 917.529 512.226 930.121 523.887 943.543L561.676 981.331C567.49 987.146 574.275 993.93 581.019 998.914C587.769 1003.9 593.584 1009.72 601.298 1015.67C607.112 1021.49 613.863 1026.48 620.614 1031.47C627.365 1036.46 634.116 1041.45 639.89 1045.47C652.421 1054.48 664.913 1061.71 676.473 1069.75C683.19 1072.94 687.994 1076 692.812 1079.05C698.559 1081.28 703.362 1084.34 709.116 1086.57C718.704 1090.89 728.264 1093.4 735.912 1095.78C743.559 1098.16 749.272 1098.59 753.079 1098.89L758.786 1099.33C758.786 1099.33 756.879 1099.18 753.079 1098.89C749.266 1098.6 742.589 1097.19 735.872 1093.99C728.224 1091.62 719.601 1088.27 710.012 1083.96C705.202 1080.91 699.462 1078.67 694.644 1075.62C689.834 1072.57 684.053 1068.55 678.306 1066.31C667.715 1059.24 655.191 1050.22 643.596 1040.39C637.815 1036.37 632.001 1030.55 625.25 1025.56C619.436 1019.75 612.685 1014.76 606.87 1008.94C601.056 1003.13 595.241 997.316 588.49 992.325L570.084 973.919C557.485 961.32 546.799 948.874 535.138 935.452C523.475 922.029 512.75 907.795 502.058 895.342C491.332 881.096 480.64 868.655 469.948 856.202C449.501 830.486 430.023 805.727 413.483 785.678C396.95 765.624 384.25 747.655 374.528 736.172C372.587 734.231 371.59 731.474 370.62 730.504L411.734 692.504C415.574 694.584 419.455 698.464 424.265 701.515C431.016 706.505 438.737 712.465 449.321 719.54C458.005 726.464 470.504 733.694 482.065 741.733C493.626 749.774 507.087 757.966 521.519 767.128C535.951 776.29 551.318 784.616 566.686 792.954C583.024 802.262 599.323 809.77 615.667 819.072C632.005 828.38 650.209 836.034 667.483 844.517C684.758 853.002 702.93 858.862 720.204 867.345C738.381 873.211 754.679 880.718 771.88 885.621C789.088 890.517 805.358 896.236 821.589 900.17C836.89 904.919 852.157 907.875 866.488 911.668C879.848 914.477 893.216 917.293 904.642 918.168C915.133 919.868 926.56 920.744 934.173 921.327C951.306 922.641 959.863 922.407 959.863 922.407C959.863 922.407 950.343 921.677 934.14 919.545C925.556 917.992 916.036 917.262 904.575 914.592C894.085 912.892 880.724 910.083 866.387 906.296C852.056 902.516 837.718 898.729 822.417 893.98C807.116 889.231 790.845 883.51 773.644 878.608C757.373 872.888 739.169 865.235 721.927 858.545C704.653 850.061 687.417 843.377 670.144 834.893C652.87 826.41 635.601 817.931 619.263 808.624C602.925 799.316 586.594 790.014 571.219 781.682C555.817 771.549 541.385 762.399 527.925 754.208C514.424 744.227 500.962 736.035 489.401 727.995C477.84 719.955 467.255 712.879 457.594 704.978C448.909 698.054 440.218 691.124 433.474 686.128C428.664 683.078 425.754 680.168 423.82 678.234L540.66 571.78C544.5 573.86 550.281 577.88 556.998 581.089C560.838 583.168 564.685 585.255 569.489 588.31C574.3 591.36 578.147 593.447 583.887 595.679C594.438 600.96 605.972 607.213 619.399 613.61C632.826 620.007 647.19 625.581 662.526 632.125C677.86 638.669 695.067 643.565 711.339 649.285C727.611 655.005 746.718 660.053 763.918 664.941C782.055 669.019 800.233 674.885 818.369 678.949C836.507 683.026 854.65 687.098 873.725 690.351C891.863 694.429 909.973 696.707 927.141 699.813C944.308 702.921 960.511 705.052 976.715 707.197C992.912 709.334 1007.22 711.327 1021.51 713.313C1076.77 719.334 1114.82 720.465 1114.82 720.465C1114.82 720.465 1077.71 718.516 1021.45 709.731C1007.16 707.746 992.858 705.748 977.591 702.792C961.394 700.654 945.156 696.729 927.983 693.628C910.815 690.52 892.671 686.448 874.534 682.37C856.396 678.292 839.189 673.397 820.082 668.362C801.904 662.496 783.766 658.418 765.596 652.558C747.419 646.692 731.147 640.971 713.92 634.282C696.679 627.592 681.378 622.843 666.98 615.474C651.645 608.93 638.218 602.532 625.753 597.11C613.262 589.888 602.697 584.605 592.147 579.324C587.337 576.274 582.526 573.224 578.686 571.132C574.845 569.052 570.028 565.996 567.124 563.092C562.314 560.042 558.467 557.955 555.563 555.052L720.104 406.626C722.981 407.743 727.751 409.004 734.468 412.2C740.215 414.426 745.955 416.658 753.616 419.036C760.333 422.233 769.887 424.757 778.504 428.104C788.058 430.628 797.652 434.941 809.105 437.603C820.565 440.273 831.082 443.761 842.543 446.431C854.003 449.101 866.394 450.94 879.76 453.756C892.157 455.602 905.484 456.617 917.874 458.469C930.238 458.521 942.635 460.367 954.984 460.418C967.347 460.47 979.704 460.528 991.097 459.609C1002.49 458.691 1013.88 457.778 1024.3 455.89C1034.72 454.001 1045.14 452.119 1053.66 450.092C1062.18 448.057 1070.7 446.029 1077.31 443.848C1083.93 441.674 1090.54 439.493 1096.22 438.143C1106.6 434.466 1111.32 432.14 1111.32 432.14C1111.32 432.14 1106.61 434.46 1096.22 438.143C1090.54 439.493 1084.86 440.85 1078.24 443.03C1071.62 445.204 1062.14 446.268 1053.62 448.303C1044.14 449.367 1034.65 450.432 1024.23 452.308C1012.83 453.226 1002.38 453.321 990.99 454.232C979.597 455.151 967.2 453.305 954.843 453.246C942.48 453.194 930.083 451.348 917.7 449.503C905.303 447.657 892.913 445.818 881.452 443.148C869.992 440.478 857.568 436.844 846.108 434.175C835.584 430.681 823.16 427.047 813.6 424.529C803.076 421.035 793.489 416.729 784.872 413.382C776.255 410.034 767.631 406.692 760.921 403.49C754.203 400.294 747.493 397.092 742.709 395.83C739.832 394.713 738.869 393.75 735.992 392.634L851.995 290.564L854.838 289.886L854.804 288.092L1045.52 116.643L851.835 281.611C851.802 279.816 849.868 277.883 849.834 276.089C848.83 273.324 848.763 269.748 847.726 265.19C847.659 261.602 846.621 257.056 846.527 251.68C845.496 247.128 846.359 242.721 846.258 237.351C846.157 231.981 847.026 227.569 846.926 222.199C846.825 216.828 848.631 211.592 848.53 206.222C850.235 195.616 852.903 185.985 856.508 175.518C859.183 165.882 862.815 157.215 865.523 149.373C871.904 134.652 876.478 125.168 876.478 125.168C876.478 125.168 870.003 134.513 862.652 148.264C858.979 155.143 853.434 163.658 850.759 173.294C846.183 182.778 842.579 193.246 838.974 203.7C837.175 208.931 835.369 214.155 835.47 219.537C833.67 224.768 833.765 230.144 831.965 235.375C832.066 240.745 830.261 245.981 830.361 251.351C830.462 256.721 829.593 261.134 830.63 265.68C831.661 270.231 831.735 273.814 831.802 277.402C831.87 280.991 832.873 283.743 833.877 286.507C834.908 291.059 834.981 294.641 834.981 294.641L837.825 293.964L625.419 475.399C624.448 474.429 623.451 471.671 621.511 469.731C618.574 465.033 614.7 461.159 611.715 454.666C608.744 448.174 603.86 441.541 599.919 434.079C595.977 426.617 591.996 417.366 588.022 408.123C583.111 399.69 581.009 388.798 577.027 379.547C573.046 370.296 569.974 358.434 566.936 348.354C563.891 338.279 560.819 326.417 558.711 315.518C556.604 304.62 554.501 293.728 553.329 282.004C551.221 271.106 550.055 259.389 548.918 249.462C547.78 239.533 547.578 228.78 546.439 218.851C545.3 208.922 545.133 199.964 545.935 191.975C545.296 157.936 547.735 135.752 547.735 135.752C547.735 135.752 544.332 156.959 543.072 190.859C543.24 199.818 542.438 207.806 542.64 218.559C541.871 228.341 543.009 238.27 543.211 249.023C543.413 259.775 543.615 270.528 545.716 281.42C546.888 293.143 548.99 304.035 550.162 315.758C552.27 326.657 553.436 338.373 556.514 350.241C558.622 361.14 561.694 373.003 564.738 383.077C567.783 393.152 569.885 404.044 574.83 414.27C578.811 423.521 581.843 433.595 585.79 441.05C589.731 448.513 593.679 455.969 597.621 463.432C600.592 469.924 604.506 475.587 607.443 480.285C609.411 484.013 612.321 486.923 613.318 489.681L471.003 607.582L466.159 602.738C462.285 598.864 458.378 593.196 453.5 586.558C448.622 579.92 442.774 572.311 437.864 563.892C432.952 555.459 427.071 546.069 421.189 536.666C416.244 526.452 409.392 516.079 404.447 505.864C398.532 494.68 392.616 483.482 387.638 471.475C382.661 459.468 376.744 448.269 372.703 435.438C362.739 411.414 353.726 386.568 344.733 363.515C336.676 339.637 329.629 318.518 323.58 300.17C312.417 262.636 306.233 237.111 306.233 237.111C306.233 237.111 310.511 262.491 320.737 300.849C325.857 320.029 331.967 341.972 338.119 365.703C345.206 388.61 353.289 414.274 362.31 439.128C366.352 451.961 371.338 463.977 376.309 475.989C381.287 487.998 386.273 500.014 391.244 512.027C396.222 524.035 401.168 534.262 407.083 545.446C412.027 555.66 417.909 565.063 422.821 573.496C427.733 581.929 432.644 590.348 437.521 596.986C441.462 604.448 446.306 609.292 450.22 614.954C453.124 617.858 454.128 620.623 456.068 622.563L377.473 689.895C370.628 679.529 360.9 668.053 348.3 655.453L324.079 631.232C315.361 622.514 305.699 614.612 296.046 606.72C286.392 598.826 275.767 589.962 265.149 581.092C254.524 572.228 243.9 563.365 234.211 553.675L205.146 524.61C196.394 514.098 187.676 505.38 179.855 494.05C172.073 484.508 165.214 474.14 158.371 463.775C155.433 459.077 152.496 454.379 149.545 449.68C146.608 444.982 143.67 440.284 141.69 436.555C136.778 428.123 133.767 419.842 129.832 412.387C126.821 404.106 124.82 398.584 122.819 393.062C118.811 382.024 119.64 375.823 119.64 375.823C119.64 375.823 120.711 382.163 122.819 393.062C124.82 398.584 125.891 404.925 128.902 413.205C130.943 420.516 134.919 429.772 139.83 438.192C142.767 442.89 143.811 447.443 146.748 452.141C149.686 456.839 152.623 461.537 154.638 467.06C160.513 476.456 167.371 486.823 175.185 498.158C182.03 508.524 190.788 519.031 199.54 529.543C208.291 540.055 217.042 550.566 226.732 560.256L255.797 589.321C265.485 599.009 276.109 607.872 284.828 616.591L310.988 642.751C319.706 651.469 327.46 659.224 333.301 666.825C340.086 673.609 345.927 681.211 350.804 687.849C355.682 694.487 358.619 699.185 360.6 702.914L347.508 714.433L343.695 714.141C342.758 714.965 337.988 713.703 334.275 718.781C244.68 706.552 154.212 647.722 84.7084 592.293C67.3329 578.439 72.4527 597.618 83.0774 606.482C150.626 659.971 237.255 716.707 323.205 737.605L314.79 745.01C244.502 748.567 164.435 737.061 101.952 700.963C31.7947 660.699 8.60012 590.031 12.0316 519.618C20.6664 420.97 60.8378 332.794 118.451 262.066C176.101 193.128 252.957 134.609 333.905 90.7026C326.863 120.583 325.562 152.683 328.039 183.292C334.059 250.846 368.943 336.724 427.841 385.072C464.519 414.72 450.756 339.414 449.511 324.107C442.392 248.414 436.162 170.099 459.539 98.5423C467.584 71.4269 476.533 41.6914 504.865 31.3413C551.132 14.3157 605.343 15.7831 655.861 22.3361C649.015 62.9616 644.081 103.74 643.885 143.975C644.355 169.057 643.158 257.538 692.539 254.163C712.483 253.004 712.982 228.894 713.643 213.734C714.938 181.628 708.619 148.939 710.89 117.797C712.15 83.8962 720.905 43.417 754.81 26.3382C783.067 12.4048 820.252 17.9349 852.721 25.793C898.555 36.4675 944.492 52.5097 989.416 65.7951C1024.8 76.5633 1063.98 87.6153 1100.99 84.1896C1102.07 141.53 1127.03 205.173 1146.08 257.626C1160.15 298.063 1176.09 336.866 1193.93 375.801C1207.83 407.279 1227.45 439.204 1233.76 471.894C1240.08 504.584 1225.32 528.504 1193.22 540.358C1158.28 552.889 1116.39 549.678 1079.24 545.936C1035.44 542.579 992.519 534.816 948.657 527.877C928.647 525.447 808.287 494.752 825.326 541.683C834.38 568.318 865.083 583.201 889.971 592.268C934.937 607.342 979.936 624.209 1026.67 632.27C1109.65 646.681 1188.32 633.924 1259.99 603.635C1253.46 660.391 1236.49 719.029 1206 765.893C1181.05 804.235 1141.67 833.429 1091.29 834.033C1057.09 834.987 1024.51 821.755 992.879 807.703C951.652 789.338 910.432 770.968 869.239 754.387C853.905 747.843 663.249 669.713 667.83 711.216C670.14 732.868 703.745 750.653 721.054 760.919C766.255 788.54 815.163 811.075 862.168 833.46C910.138 856.819 958.075 878.386 1006.03 899.952C1021.36 906.496 1035.76 913.863 1051.96 915.995C1067.19 917.162 1082.4 916.536 1096.63 914.946C1032.59 998.622 950.321 1072.83 857.087 1120.25L857.106 1120.27Z" fill="white" fill-opacity="0.03"/>
</svg>
