<svg width="1180" height="1274" viewBox="0 0 1180 1274" fill="none" xmlns="http://www.w3.org/2000/svg">
<path d="M1023.81 251.547C988.958 216.079 951.345 181.609 910.53 153.848C906.269 151.079 892.992 160.834 894.349 166.507C900.534 202.513 903.138 238.594 886.999 274.072C868.921 311.492 852.645 348.871 834.559 386.283C824.965 406.428 735.645 602.993 720.917 596.618C706.196 590.237 726.85 530.914 730.338 520.383C749.636 455.373 776.097 390.23 803.236 327.929C827.173 272.338 861.046 215.615 851.388 154.95C844.671 114.195 818.487 82.3646 787.157 59.1798C733.707 21.2052 663.499 3.50932 596.669 0.00356787C593.081 0.0708983 579.132 6.98987 581.459 11.6928C610.397 77.7018 626.349 149.653 618.724 225.854C614.542 268.718 602.667 306.966 588.708 349.054C583.959 364.355 566.398 441.688 544.22 439.255C528.243 437.651 534.738 399.503 535.62 388.085C539.21 352.84 545.572 316.599 551.927 280.352C562.412 213.603 582.929 121.003 553.551 60.7147C541.939 37.1674 519.515 26.1777 493.463 27.6184C474.576 28.925 457.046 35.9039 439.509 42.8915C398.773 60.7645 358.867 79.58 319.102 96.4844C260.011 120.415 199.278 142.463 137.481 155.026C118.313 160.159 100.097 164.302 81.3561 163.701C77.7678 163.768 64.7892 169.717 66.1459 175.39C75.3726 241.768 41.8339 317.497 22.5362 382.507C6.88011 435.086 -18.9623 515.431 25.5304 553.573C68.2287 591.75 137.336 577.146 191.918 577.066C206.246 576.798 243.056 575.162 237.576 599.981C233.206 621.932 187.735 619.93 173.407 620.198C125.027 621.105 70.0643 614.535 25.1786 604.918C20.7719 604.055 9.58176 609.964 8.17986 616.648C1.9192 663.352 -0.906109 711.89 8.13169 757.355C9.86164 769.684 12.8088 789.588 22.6856 800.813C42.4332 823.256 86.5013 831.943 114.734 837.111C148.197 844.093 184.702 846.257 219.725 844.647C250.189 844.076 281.762 840.634 312.373 838.156C326.853 835.987 356.924 828.765 368.889 836.142C384.282 845.36 346.696 868.886 340.065 873.756C302.042 902.989 258.548 921.873 214.135 929.364C168.759 937.817 118.058 934.015 77.3306 916.719C73.8941 914.886 58.006 923.732 61.1502 929.378C151.65 1102.6 299.68 1260.49 501.802 1272.87C565.05 1276.43 633.48 1258.98 682.22 1206.74C722.235 1163.2 741.919 1104.85 751.527 1049.53C755.073 1026.64 757.788 1002.82 757.752 980.009L869.512 1109.11L891.799 1086.82L775.474 958.765C817.837 977.935 861.322 994.234 910.281 985.707C1009.18 967.688 1078.95 862.754 1124.93 776.324C1178.14 677.404 1194.98 574.408 1162.48 473.297C1136.94 386.314 1084.47 312.199 1023.81 251.534L1023.81 251.547ZM1120.27 417.057C1159.9 495.22 1177.83 588.052 1152.77 681.697C1135.26 746.671 1098.19 810.112 1059.09 865.035C1029.01 907.434 991.895 948.053 944.965 965.103C884.225 987.161 831.554 962.478 779.695 938.733C781.489 938.7 781.489 938.7 783.283 938.666C787.69 939.529 792.241 938.498 796.793 937.467C801.345 936.436 806.722 936.329 811.274 935.298C821.202 934.16 832.101 932.051 843.14 928.043C854.038 925.934 865.077 921.926 876.266 916.018C887.305 912.01 898.502 906.094 908.716 901.149C952.502 878.465 990.671 847.326 1018.48 823.038C1045.47 797.814 1061.25 778.504 1061.25 778.504C1061.25 778.504 1044.63 796.884 1016.01 820.228C987.383 843.585 947.565 872.853 904.889 892.667C894.675 897.612 883.624 901.621 872.586 905.628C861.548 909.637 851.473 912.682 840.569 914.783C829.67 916.892 819.741 918.03 810.643 920.098C806.092 921.128 800.715 921.236 797.133 921.297C792.581 922.327 788.175 921.465 784.587 921.532C775.628 921.7 768.61 919.928 762.409 919.099C759.791 918.196 758.002 918.236 756.215 918.263C767.697 908.541 782.084 895.915 799.375 880.373C818.605 862.903 842.534 842.482 866.609 820.168C879.061 809.476 892.478 797.82 904.106 786.192C917.529 774.529 930.121 761.938 943.543 750.276L981.331 712.488C987.146 706.673 993.93 699.889 998.914 693.145C1003.9 686.394 1009.72 680.58 1015.67 672.866C1021.49 667.052 1026.48 660.301 1031.47 653.549C1036.46 646.799 1041.45 640.048 1045.47 634.274C1054.48 621.742 1061.71 609.251 1069.75 597.69C1072.94 590.973 1076 586.169 1079.05 581.352C1081.28 575.605 1084.34 570.801 1086.57 565.047C1090.89 555.46 1093.4 545.9 1095.78 538.252C1098.16 530.605 1098.59 524.891 1098.89 521.085L1099.33 515.378C1099.33 515.378 1099.18 517.284 1098.89 521.085C1098.6 524.898 1097.19 531.575 1093.99 538.292C1091.62 545.939 1088.27 554.563 1083.96 564.151C1080.91 568.961 1078.67 574.702 1075.62 579.519C1072.57 584.33 1068.55 590.11 1066.31 595.857C1059.24 606.448 1050.22 618.972 1040.39 630.568C1036.37 636.349 1030.55 642.163 1025.56 648.914C1019.75 654.728 1014.76 661.479 1008.94 667.294C1003.13 673.108 997.316 678.922 992.325 685.674L973.919 704.08C961.32 716.679 948.874 727.365 935.452 739.026C922.029 750.688 907.795 761.414 895.342 772.106C881.096 782.831 868.655 793.524 856.202 804.216C830.486 824.663 805.727 844.141 785.678 860.68C765.624 877.214 747.655 889.913 736.172 899.636C734.231 901.576 731.474 902.573 730.504 903.543L692.504 862.43C694.584 858.589 698.464 854.709 701.515 849.898C706.505 843.148 712.465 835.426 719.54 824.842C726.464 816.158 733.694 803.66 741.733 792.099C749.774 780.538 757.966 767.076 767.128 752.645C776.29 738.213 784.616 722.846 792.954 707.477C802.262 691.139 809.77 674.841 819.072 658.497C828.38 642.158 836.034 623.954 844.517 606.68C853.002 589.405 858.862 571.234 867.345 553.96C873.211 535.782 880.718 519.485 885.621 502.283C890.517 485.076 896.236 468.806 900.17 452.574C904.919 437.274 907.875 422.007 911.668 407.676C914.477 394.315 917.293 380.948 918.168 369.521C919.868 359.031 920.744 347.604 921.327 339.99C922.641 322.857 922.407 314.3 922.407 314.3C922.407 314.3 921.677 323.82 919.545 340.024C917.992 348.608 917.262 358.128 914.592 369.588C912.892 380.078 910.083 393.439 906.296 407.777C902.516 422.107 898.729 436.445 893.98 451.746C889.231 467.047 883.51 483.318 878.608 500.519C872.888 516.79 865.235 534.995 858.545 552.236C850.061 569.511 843.377 586.746 834.893 604.02C826.41 621.294 817.931 638.563 808.624 654.9C799.316 671.238 790.014 687.57 781.682 702.944C771.549 718.346 762.399 732.778 754.208 746.238C744.227 759.74 736.035 773.202 727.995 784.762C719.955 796.324 712.879 806.908 704.978 816.57C698.054 825.254 691.124 833.945 686.128 840.689C683.078 845.499 680.168 848.41 678.234 850.343L571.78 733.504C573.86 729.663 577.88 723.883 581.089 717.165C583.168 713.325 585.255 709.478 588.31 704.674C591.36 699.864 593.447 696.017 595.679 690.276C600.96 679.725 607.213 668.191 613.61 654.764C620.007 641.337 625.581 626.973 632.125 611.638C638.669 596.303 643.565 579.097 649.285 562.824C655.005 546.552 660.053 527.445 664.941 510.246C669.019 492.108 674.885 473.93 678.949 455.794C683.026 437.657 687.098 419.513 690.351 400.438C694.429 382.301 696.707 364.19 699.813 347.023C702.921 329.856 705.052 313.652 707.197 297.448C709.334 281.251 711.327 266.947 713.313 252.65C719.334 197.395 720.465 159.342 720.465 159.342C720.465 159.342 718.516 196.451 709.731 252.711C707.746 267.008 705.748 281.305 702.792 296.573C700.654 312.77 696.729 329.007 693.628 346.181C690.52 363.348 686.448 381.492 682.37 399.63C678.292 417.767 673.397 434.974 668.362 454.082C662.496 472.259 658.418 490.397 652.558 508.567C646.692 526.745 640.971 543.016 634.282 560.244C627.592 577.485 622.843 592.785 615.474 607.184C608.93 622.518 602.532 635.946 597.11 648.41C589.888 660.901 584.605 671.466 579.324 682.016C576.274 686.827 573.224 691.637 571.132 695.478C569.052 699.318 565.996 704.135 563.092 707.039C560.042 711.849 557.955 715.696 555.052 718.6L406.626 554.06C407.743 551.183 409.004 546.413 412.2 539.696C414.426 533.949 416.658 528.208 419.036 520.548C422.233 513.831 424.757 504.277 428.104 495.66C430.628 486.106 434.941 476.512 437.603 465.059C440.273 453.599 443.761 443.081 446.431 431.621C449.101 420.16 450.94 407.77 453.756 394.403C455.602 382.006 456.617 368.679 458.469 356.289C458.521 343.926 460.367 331.529 460.418 319.18C460.47 306.816 460.528 294.459 459.609 283.066C458.691 271.673 457.778 260.286 455.89 249.863C454.001 239.44 452.119 229.024 450.092 220.502C448.057 211.985 446.029 203.462 443.848 196.853C441.674 190.236 439.493 183.627 438.143 177.947C434.466 167.564 432.14 162.848 432.14 162.848C432.14 162.848 434.46 167.557 438.143 177.947C439.493 183.627 440.85 189.3 443.03 195.923C445.204 202.539 446.268 212.025 448.303 220.542C449.367 230.028 450.432 239.515 452.308 249.938C453.226 261.331 453.321 271.787 454.232 283.173C455.151 294.566 453.305 306.963 453.246 319.32C453.194 331.683 451.348 344.08 449.503 356.463C447.657 368.86 445.818 381.25 443.148 392.711C440.478 404.171 436.844 416.595 434.175 428.055C430.681 438.579 427.047 451.003 424.529 460.564C421.035 471.088 416.729 480.675 413.382 489.291C410.034 497.908 406.692 506.532 403.49 513.243C400.294 519.96 397.092 526.671 395.83 531.454C394.713 534.331 393.75 535.294 392.634 538.171L290.564 422.169L289.886 419.326L288.092 419.359L116.643 228.639L281.611 422.328C279.816 422.362 277.883 424.296 276.089 424.329C273.324 425.333 269.748 425.4 265.19 426.438C261.602 426.505 257.056 427.542 251.68 427.637C247.128 428.667 242.721 427.805 237.351 427.905C231.981 428.006 227.569 427.137 222.199 427.238C216.828 427.339 211.592 425.533 206.222 425.634C195.616 423.929 185.985 421.26 175.518 417.656C165.882 414.981 157.215 411.349 149.373 408.641C134.652 402.26 125.168 397.685 125.168 397.685C125.168 397.685 134.513 404.161 148.264 411.512C155.143 415.184 163.658 420.73 173.294 423.405C182.778 427.98 193.246 431.585 203.7 435.189C208.931 436.989 214.155 438.795 219.537 438.694C224.768 440.493 230.144 440.399 235.375 442.198C240.745 442.097 245.981 443.903 251.351 443.802C256.721 443.701 261.134 444.57 265.68 443.533C270.231 442.502 273.814 442.429 277.402 442.361C280.991 442.294 283.743 441.29 286.507 440.287C291.059 439.256 294.641 439.182 294.641 439.182L293.964 436.339L475.399 648.745C474.429 649.715 471.671 650.712 469.731 652.652C465.033 655.59 461.159 659.464 454.666 662.448C448.174 665.419 441.541 670.304 434.079 674.245C426.617 678.186 417.366 682.168 408.123 686.142C399.69 691.053 388.798 693.155 379.547 697.136C370.296 701.118 358.434 704.19 348.354 707.227C338.279 710.272 326.417 713.344 315.518 715.452C304.62 717.56 293.728 719.662 282.004 720.834C271.106 722.943 259.389 724.108 249.462 725.245C239.533 726.384 228.78 726.585 218.851 727.724C208.922 728.863 199.964 729.031 191.975 728.229C157.936 728.867 135.752 726.428 135.752 726.428C135.752 726.428 156.959 729.832 190.859 731.092C199.818 730.924 207.806 731.726 218.559 731.524C228.341 732.292 238.27 731.154 249.023 730.952C259.775 730.75 270.528 730.549 281.42 728.447C293.143 727.275 304.035 725.173 315.758 724.001C326.657 721.893 338.373 720.728 350.241 717.65C361.14 715.541 373.003 712.469 383.077 709.425C393.152 706.38 404.044 704.278 414.27 699.334C423.521 695.353 433.595 692.321 441.05 688.374C448.513 684.433 455.969 680.485 463.432 676.543C469.924 673.572 475.587 669.658 480.285 666.72C484.013 664.753 486.923 661.842 489.681 660.845L607.582 803.16L602.738 808.004C598.864 811.878 593.196 815.786 586.558 820.664C579.92 825.541 572.311 831.389 563.892 836.3C555.459 841.211 546.069 847.093 536.666 852.975C526.452 857.919 516.079 864.771 505.864 869.717C494.68 875.632 483.482 881.548 471.475 886.525C459.468 891.502 448.269 897.42 435.438 901.46C411.414 911.425 386.568 920.437 363.515 929.43C339.637 937.487 318.518 944.535 300.17 950.584C262.636 961.746 237.111 967.93 237.111 967.93C237.111 967.93 262.491 963.653 300.849 953.427C320.029 948.307 341.972 942.196 365.703 936.045C388.61 928.958 414.274 920.874 439.128 911.853C451.961 907.811 463.977 902.825 475.989 897.855C487.998 892.876 500.014 887.89 512.027 882.92C524.035 877.941 534.262 872.996 545.446 867.081C555.66 862.136 565.063 856.254 573.496 851.342C581.929 846.43 590.348 841.52 596.986 836.643C604.448 832.701 609.292 827.857 614.954 823.943C617.858 821.039 620.623 820.036 622.563 818.095L689.895 896.691C679.529 903.536 668.053 913.264 655.453 925.863L631.232 950.084C622.514 958.802 614.612 968.464 606.72 978.117C598.826 987.772 589.962 998.397 581.092 1009.01C572.228 1019.64 563.365 1030.26 553.675 1039.95L524.61 1069.02C514.098 1077.77 505.38 1086.49 494.05 1094.31C484.508 1102.09 474.14 1108.95 463.775 1115.79C459.077 1118.73 454.379 1121.67 449.68 1124.62C444.982 1127.56 440.284 1130.49 436.555 1132.47C428.123 1137.39 419.842 1140.4 412.387 1144.33C404.106 1147.34 398.584 1149.34 393.062 1151.34C382.024 1155.35 375.823 1154.52 375.823 1154.52C375.823 1154.52 382.163 1153.45 393.062 1151.34C398.584 1149.34 404.925 1148.27 413.205 1145.26C420.516 1143.22 429.772 1139.24 438.192 1134.33C442.89 1131.4 447.443 1130.35 452.141 1127.41C456.839 1124.48 461.537 1121.54 467.06 1119.53C476.456 1113.65 486.823 1106.79 498.158 1098.98C508.524 1092.13 519.031 1083.38 529.543 1074.62C540.055 1065.87 550.566 1057.12 560.256 1047.43L589.321 1018.37C599.009 1008.68 607.872 998.054 616.591 989.336L642.751 963.176C651.469 954.458 659.224 946.703 666.825 940.862C673.609 934.078 681.211 928.237 687.849 923.36C694.487 918.482 699.185 915.544 702.914 913.564L714.433 926.655L714.141 930.469C714.965 931.405 713.703 936.176 718.781 939.888C706.552 1029.48 647.722 1119.95 592.293 1189.46C578.439 1206.83 597.618 1201.71 606.482 1191.09C659.971 1123.54 716.707 1036.91 737.605 950.958L745.01 959.374C748.567 1029.66 737.061 1109.73 700.963 1172.21C660.699 1242.37 590.031 1265.56 519.618 1262.13C420.97 1253.5 332.794 1213.33 262.066 1155.71C193.128 1098.06 134.609 1021.21 90.7026 940.259C120.583 947.301 152.683 948.602 183.292 946.125C250.846 940.104 336.724 905.22 385.072 846.322C414.72 809.645 339.414 823.407 324.107 824.652C248.414 831.772 170.099 838.001 98.5423 814.624C71.4269 806.579 41.6914 797.63 31.3413 769.298C14.3157 723.032 15.7831 668.821 22.3361 618.302C62.9616 625.148 103.74 630.082 143.975 630.279C169.057 629.808 257.538 631.005 254.163 581.624C253.004 561.681 228.894 561.181 213.734 560.52C181.628 559.226 148.939 565.544 117.797 563.273C83.8962 562.014 43.417 553.259 26.3382 519.353C12.4048 491.096 17.9349 453.912 25.793 421.443C36.4675 375.608 52.5097 329.671 65.7951 284.747C76.5633 249.368 87.6153 210.184 84.1896 173.169C141.53 172.093 205.173 147.132 257.626 128.08C298.063 114.014 336.866 98.0736 375.801 80.2285C407.279 66.3304 439.204 46.7177 471.894 40.3997C504.584 34.081 528.504 48.8451 540.358 80.9408C552.889 115.881 549.678 157.777 545.936 194.92C542.579 238.722 534.816 281.644 527.877 325.506C525.447 345.517 494.752 465.876 541.683 448.837C568.318 439.783 583.201 409.08 592.268 384.192C607.342 339.226 624.209 294.227 632.27 247.497C646.681 164.513 633.924 85.8417 603.635 14.1686C660.391 20.7055 719.029 37.6745 765.893 68.162C804.235 93.1121 833.429 132.495 834.033 182.872C834.987 217.077 821.755 249.653 807.703 281.285C789.338 322.511 770.968 363.732 754.387 404.924C747.843 420.258 669.713 610.914 711.216 606.334C732.868 604.024 750.653 570.418 760.919 553.11C788.54 507.908 811.075 459.001 833.46 411.995C856.819 364.025 878.386 316.089 899.952 268.137C906.496 252.803 913.863 238.406 915.995 222.202C917.162 206.975 916.536 191.768 914.946 177.538C998.622 241.574 1072.83 323.842 1120.25 417.077L1120.27 417.057Z" fill="white" fill-opacity="0.03"/>
</svg>
